<svg xmlns="http://www.w3.org/2000/svg" xmlns:xlink="http://www.w3.org/1999/xlink" width="500" zoomAndPan="magnify" viewBox="0 0 375 374.999991" height="500" preserveAspectRatio="xMidYMid meet" version="1.0"><defs><clipPath id="c1019b7d4c"><path d="M 69.789062 135.976562 L 305.210938 135.976562 L 305.210938 359.441406 L 69.789062 359.441406 Z M 69.789062 135.976562 " clip-rule="nonzero"/></clipPath><clipPath id="d36ed26e64"><path d="M 148.304688 352.644531 C 160.375 356.746094 174.097656 359.441406 187.5625 359.441406 C 201.03125 359.441406 213.988281 357.132812 225.933594 353.027344 C 226.1875 352.898438 226.441406 352.898438 226.695312 352.769531 C 271.542969 336.351562 304.574219 293 305.210938 243.808594 L 305.210938 135.976562 L 69.789062 135.976562 L 69.789062 243.726562 C 70.425781 293.257812 102.949219 336.609375 148.304688 352.644531 Z M 148.304688 352.644531 " clip-rule="nonzero"/></clipPath><clipPath id="56ae3153ac"><path d="M 71.222656 135.976562 L 303.777344 135.976562 L 303.777344 356.722656 L 71.222656 356.722656 Z M 71.222656 135.976562 " clip-rule="nonzero"/></clipPath><clipPath id="4296858757"><path d="M 148.78125 350.007812 C 160.703125 354.0625 174.257812 356.722656 187.5625 356.722656 C 200.867188 356.722656 213.667969 354.441406 225.464844 350.386719 C 225.714844 350.257812 225.964844 350.257812 226.21875 350.132812 C 270.519531 333.914062 303.152344 291.089844 303.777344 242.496094 L 303.777344 135.976562 L 71.222656 135.976562 L 71.222656 242.417969 C 71.847656 291.34375 103.976562 334.167969 148.78125 350.007812 Z M 148.78125 350.007812 " clip-rule="nonzero"/></clipPath><clipPath id="ad01e99369"><path d="M 80.996094 161.921875 L 295.472656 161.921875 L 295.472656 324.925781 L 80.996094 324.925781 Z M 80.996094 161.921875 " clip-rule="nonzero"/></clipPath><clipPath id="3e70bcd266"><path d="M 152.527344 318.730469 C 163.523438 322.472656 176.023438 324.925781 188.292969 324.925781 C 200.5625 324.925781 212.367188 322.820312 223.246094 319.082031 C 223.476562 318.964844 223.710938 318.964844 223.941406 318.847656 C 264.800781 303.890625 294.894531 264.394531 295.472656 220.480469 L 295.472656 161.921875 L 80.996094 161.921875 L 80.996094 220.4375 C 81.574219 264.628906 111.207031 304.125 152.527344 318.730469 Z M 152.527344 318.730469 " clip-rule="nonzero"/></clipPath><clipPath id="8c8bc907d4"><path d="M 67.621094 134.328125 L 307.375 134.328125 L 307.375 318.804688 L 67.621094 318.804688 Z M 67.621094 134.328125 " clip-rule="nonzero"/></clipPath><clipPath id="64e5f869e9"><path d="M 187.5 318.804688 L 67.621094 134.328125 L 307.375 134.328125 Z M 187.5 318.804688 " clip-rule="nonzero"/></clipPath><clipPath id="a4aec08554"><path d="M 122.710938 144.207031 L 252.285156 144.207031 L 252.285156 257.585938 L 122.710938 257.585938 Z M 122.710938 144.207031 " clip-rule="nonzero"/></clipPath><clipPath id="80e84902f6"><path d="M 187.5 257.585938 L 122.710938 144.207031 L 252.285156 144.207031 Z M 187.5 257.585938 " clip-rule="nonzero"/></clipPath><clipPath id="d7ce0e3052"><path d="M 154.984375 15.558594 L 220.015625 15.558594 L 220.015625 80.59375 L 154.984375 80.59375 Z M 154.984375 15.558594 " clip-rule="nonzero"/></clipPath><clipPath id="c4cf81d840"><path d="M 187.5 15.558594 C 169.542969 15.558594 154.984375 30.117188 154.984375 48.074219 C 154.984375 66.035156 169.542969 80.59375 187.5 80.59375 C 205.457031 80.59375 220.015625 66.035156 220.015625 48.074219 C 220.015625 30.117188 205.457031 15.558594 187.5 15.558594 Z M 187.5 15.558594 " clip-rule="nonzero"/></clipPath><clipPath id="095abffb87"><path d="M 170.964844 89.089844 L 204.035156 89.089844 L 204.035156 125.554688 L 170.964844 125.554688 Z M 170.964844 89.089844 " clip-rule="nonzero"/></clipPath><clipPath id="99147a7a1e"><path d="M 187.5 125.554688 L 204.035156 89.089844 L 170.964844 89.089844 Z M 187.5 125.554688 " clip-rule="nonzero"/></clipPath><clipPath id="6867f6d510"><path d="M 182.628906 110.671875 L 192.371094 110.671875 L 192.371094 122.347656 L 182.628906 122.347656 Z M 182.628906 110.671875 " clip-rule="nonzero"/></clipPath><clipPath id="ae0bf30c1c"><path d="M 187.5 122.347656 L 192.371094 110.671875 L 182.628906 110.671875 Z M 187.5 122.347656 " clip-rule="nonzero"/></clipPath><clipPath id="00476ad9d1"><path d="M 178.058594 81.300781 L 196.941406 81.300781 L 196.941406 100.1875 L 178.058594 100.1875 Z M 178.058594 81.300781 " clip-rule="nonzero"/></clipPath><clipPath id="2e5fa41458"><path d="M 187.5 81.300781 L 196.941406 90.742188 L 187.5 100.1875 L 178.058594 90.742188 Z M 187.5 81.300781 " clip-rule="nonzero"/></clipPath></defs><rect x="-37.5" width="450" fill="#ffffff" y="-37.499999" height="449.999989" fill-opacity="1"/><rect x="-37.5" width="450" fill="#000000" y="-37.499999" height="449.999989" fill-opacity="1"/><g clip-path="url(#c1019b7d4c)"><g clip-path="url(#d36ed26e64)"><path fill="#000000" d="M 69.789062 135.976562 L 305.210938 135.976562 L 305.210938 359.441406 L 69.789062 359.441406 Z M 69.789062 135.976562 " fill-opacity="1" fill-rule="nonzero"/></g></g><g clip-path="url(#56ae3153ac)"><g clip-path="url(#4296858757)"><path fill="#ffffff" d="M 71.222656 135.976562 L 303.777344 135.976562 L 303.777344 356.722656 L 71.222656 356.722656 Z M 71.222656 135.976562 " fill-opacity="1" fill-rule="nonzero"/></g></g><g clip-path="url(#ad01e99369)"><g clip-path="url(#3e70bcd266)"><path fill="#000000" d="M 80.996094 161.921875 L 295.472656 161.921875 L 295.472656 324.925781 L 80.996094 324.925781 Z M 80.996094 161.921875 " fill-opacity="1" fill-rule="nonzero"/></g></g><g clip-path="url(#8c8bc907d4)"><g clip-path="url(#64e5f869e9)"><path fill="#000000" d="M 307.375 318.804688 L 67.621094 318.804688 L 67.621094 134.328125 L 307.375 134.328125 Z M 307.375 318.804688 " fill-opacity="1" fill-rule="nonzero"/></g></g><path stroke-linecap="butt" transform="matrix(0.75, 0, 0, 0.75, 71.221349, 179.420086)" fill="none" stroke-linejoin="miter" d="M 0.0017435 22.002387 L 310.074681 22.002387 " stroke="#ffffff" stroke-width="44" stroke-opacity="1" stroke-miterlimit="4"/><g clip-path="url(#a4aec08554)"><g clip-path="url(#80e84902f6)"><path fill="#000000" d="M 252.285156 257.585938 L 122.710938 257.585938 L 122.710938 144.207031 L 252.285156 144.207031 Z M 252.285156 257.585938 " fill-opacity="1" fill-rule="nonzero"/></g></g><path stroke-linecap="butt" transform="matrix(0, 0.75, -0.75, 0, 203.995275, 90.748566)" fill="none" stroke-linejoin="miter" d="M 0.00191195 21.99891 L 232.512344 21.99891 " stroke="#ffffff" stroke-width="44" stroke-opacity="1" stroke-miterlimit="4"/><g clip-path="url(#d7ce0e3052)"><g clip-path="url(#c4cf81d840)"><path fill="#ffffff" d="M 154.984375 15.558594 L 220.015625 15.558594 L 220.015625 80.59375 L 154.984375 80.59375 Z M 154.984375 15.558594 " fill-opacity="1" fill-rule="nonzero"/></g></g><g clip-path="url(#095abffb87)"><g clip-path="url(#99147a7a1e)"><path fill="#000000" d="M 170.964844 89.089844 L 204.035156 89.089844 L 204.035156 125.554688 L 170.964844 125.554688 Z M 170.964844 89.089844 " fill-opacity="1" fill-rule="nonzero"/></g></g><path stroke-linecap="butt" transform="matrix(0.000000001309, 0.75, -0.75, 0.000000001309, 190.871711, 89.093454)" fill="none" stroke-linejoin="miter" d="M 0.000394459 4.500824 L 28.776438 4.500824 " stroke="#000000" stroke-width="9" stroke-opacity="1" stroke-miterlimit="4"/><g clip-path="url(#6867f6d510)"><g clip-path="url(#ae0bf30c1c)"><path fill="#ffffff" d="M 182.628906 110.671875 L 192.371094 110.671875 L 192.371094 122.347656 L 182.628906 122.347656 Z M 182.628906 110.671875 " fill-opacity="1" fill-rule="nonzero"/></g></g><g clip-path="url(#00476ad9d1)"><g clip-path="url(#2e5fa41458)"><path fill="#ffffff" d="M 178.058594 81.300781 L 196.941406 81.300781 L 196.941406 100.1875 L 178.058594 100.1875 Z M 178.058594 81.300781 " fill-opacity="1" fill-rule="nonzero"/></g></g><path stroke-linecap="butt" transform="matrix(0, 0.75, -0.75, 0, 190.871711, 90.747124)" fill="none" stroke-linejoin="miter" d="M -0.00137319 4.500824 L 28.77467 4.500824 " stroke="#ffffff" stroke-width="9" stroke-opacity="1" stroke-miterlimit="4"/><path stroke-linecap="butt" transform="matrix(0.75, -0.000000000000000837, 0.000000000000000837, 0.75, 150.502319, 265.080422)" fill="none" stroke-linejoin="miter" d="M 0.00211578 8.502147 L 98.658372 8.502147 " stroke="#ffffff" stroke-width="17" stroke-opacity="1" stroke-miterlimit="4"/></svg>