<?xml version="1.0" standalone="no"?>
<!DOCTYPE svg PUBLIC "-//W3C//DTD SVG 20010904//EN"
 "http://www.w3.org/TR/2001/REC-SVG-20010904/DTD/svg10.dtd">
<svg version="1.0" xmlns="http://www.w3.org/2000/svg"
 width="518.000000pt" height="518.000000pt" viewBox="0 0 518.000000 518.000000"
 preserveAspectRatio="xMidYMid meet">
<metadata>
Created by potrace 1.16, written by Peter Selinger 2001-2019
</metadata>
<g transform="translate(0.000000,518.000000) scale(0.100000,-0.100000)"
fill="#000000" stroke="none">
<path d="M134 5168 c-4 -7 -3 -8 4 -4 12 7 16 -4 13 -36 -1 -9 3 -19 9 -23 5
-3 10 -14 9 -23 0 -12 -3 -11 -9 6 -5 12 -17 22 -27 22 -11 0 -14 -3 -7 -8 24
-15 4 -199 -22 -209 -8 -3 -11 -9 -8 -15 3 -5 -2 -16 -12 -24 -18 -14 -18 -14
0 -7 17 5 18 3 12 -23 -3 -16 -8 -45 -11 -64 -3 -19 -12 -40 -20 -46 -8 -6
-10 -15 -5 -24 4 -7 6 -25 3 -39 -9 -54 17 -5 34 64 10 39 22 73 26 76 5 3 8
25 9 49 0 28 3 38 9 29 8 -12 14 27 12 79 -1 6 2 12 6 12 4 0 12 19 19 43 12
41 15 43 43 39 l31 -5 -18 34 c-10 19 -18 36 -17 39 0 3 3 20 6 38 l7 32 -45
0 c-24 0 -47 -5 -51 -12z"/>
<path d="M380 5161 c0 -11 -9 -26 -21 -34 -20 -14 -20 -16 -2 -26 12 -7 14
-13 7 -18 -6 -5 -10 -19 -9 -33 3 -38 -4 -51 -23 -41 -10 4 -22 6 -29 4 -7 -2
-21 1 -32 6 -23 13 -37 -2 -17 -18 7 -6 11 -21 9 -34 -3 -15 3 -29 19 -42 16
-14 19 -15 10 -3 -8 9 -12 25 -9 35 4 14 5 13 6 -4 0 -13 5 -23 10 -23 5 0 11
-12 14 -26 3 -18 1 -24 -9 -20 -16 6 -19 -10 -4 -19 6 -3 10 -14 9 -23 0 -14
-2 -13 -9 3 -5 11 -9 16 -10 10 -1 -5 -3 -14 -5 -20 -1 -5 -3 -18 -3 -27 -1
-11 -10 -18 -24 -18 -14 0 -18 -3 -12 -8 15 -9 24 -71 10 -69 -6 1 -11 -7 -12
-18 0 -11 -4 -30 -8 -42 -6 -18 -3 -23 11 -23 15 0 14 -2 -5 -16 -22 -15 -30
-49 -13 -56 5 -1 6 -18 4 -36 -4 -22 -10 -32 -19 -28 -7 3 -12 -2 -12 -12 1
-9 -2 -34 -6 -54 -4 -25 -3 -38 4 -38 5 0 10 7 10 15 0 8 4 23 9 33 24 46 45
117 42 137 -1 3 5 18 14 35 8 16 15 40 15 55 0 14 4 25 9 25 5 0 11 22 15 50
4 27 11 52 16 55 6 3 10 15 10 25 0 15 5 17 28 11 31 -9 31 -14 14 -126 -6
-38 -10 -105 -9 -148 1 -42 -1 -77 -5 -77 -5 0 -8 -15 -8 -32 0 -25 3 -29 10
-18 14 22 12 3 -2 -20 -9 -14 -10 -23 -3 -28 11 -7 14 -132 4 -132 -3 0 -2
-21 2 -47 6 -41 4 -51 -14 -70 -15 -17 -17 -23 -6 -23 11 0 12 -2 1 -9 -8 -4
-12 -12 -10 -16 6 -15 -55 -25 -71 -12 -12 10 -13 7 -8 -22 4 -18 7 -37 7 -42
0 -5 7 -9 16 -9 11 0 14 -6 9 -22 -4 -13 -7 -25 -7 -28 -1 -71 2 -81 23 -75
13 4 27 0 40 -11 17 -15 19 -26 14 -74 -11 -106 -14 -301 -5 -325 5 -14 6 -25
2 -25 -4 0 -6 -59 -4 -130 2 -86 0 -136 -8 -144 -6 -8 -12 -28 -13 -45 -1 -22
-7 -31 -19 -31 -9 0 -20 -5 -23 -11 -4 -6 -14 -8 -22 -5 -11 5 -13 1 -7 -17 4
-12 8 -50 8 -83 1 -53 3 -61 19 -58 10 1 17 -3 17 -12 0 -8 6 -14 14 -14 21 0
24 -29 19 -177 -2 -76 -6 -232 -7 -348 -2 -209 -14 -301 -39 -303 -7 0 -21 -3
-32 -6 -11 -2 -22 -5 -25 -5 -2 -1 1 -6 8 -13 16 -16 15 -74 -2 -123 -16 -44
-14 -54 8 -36 10 9 20 9 39 0 32 -15 34 -26 27 -244 -3 -93 -6 -171 -5 -172 1
-4 172 230 185 255 8 15 34 52 57 83 23 32 64 92 91 135 l50 79 1 185 c1 102
6 246 11 320 5 74 9 270 10 435 0 295 18 1307 25 1395 3 42 9 241 21 658 l4
172 -195 0 c-186 0 -195 -1 -195 -19z"/>
<path d="M1321 5163 c7 -10 47 -54 89 -99 63 -68 82 -97 123 -189 27 -60 51
-121 54 -136 5 -27 4 -27 -53 -34 -78 -9 -112 -20 -166 -54 -47 -30 -178 -182
-178 -207 0 -7 -14 -28 -32 -46 -34 -35 -158 -284 -203 -408 -33 -91 -43 -204
-26 -292 27 -136 137 -304 284 -435 46 -41 47 -43 30 -61 -64 -65 -143 -73
-196 -20 -17 17 -33 26 -35 20 -2 -6 12 -41 30 -79 36 -73 85 -113 142 -113
19 0 26 -4 23 -12 -3 -7 -23 -56 -45 -108 -22 -52 -49 -116 -61 -142 -11 -27
-18 -48 -15 -48 2 0 -5 -18 -16 -40 -11 -21 -20 -46 -20 -54 0 -9 -26 -69 -57
-133 -32 -65 -59 -121 -61 -125 -7 -15 90 -8 124 8 76 36 186 208 243 379 21
66 51 247 51 316 0 24 3 60 6 80 l6 37 57 -26 c31 -14 58 -29 59 -34 2 -4 12
-8 23 -8 12 0 19 -7 19 -20 0 -11 -7 -20 -15 -20 -8 0 -15 -8 -15 -17 1 -60
24 -226 47 -333 15 -69 27 -138 26 -155 -1 -45 -6 -75 -14 -75 -4 0 -10 -12
-14 -27 -4 -19 -9 -23 -14 -14 -6 9 -10 6 -14 -11 -4 -13 -18 -37 -32 -54 -15
-16 -37 -50 -51 -76 -18 -36 -32 -49 -57 -56 -18 -5 -53 -22 -78 -38 -24 -16
-46 -29 -49 -30 -3 0 -26 -11 -53 -23 -60 -28 -142 -42 -232 -40 -55 1 -69 -1
-67 -12 2 -8 8 -15 13 -17 5 -2 9 -13 9 -23 0 -12 4 -17 11 -13 8 4 8 1 2 -12
-5 -11 -8 -29 -8 -41 2 -22 1 -21 -35 7 -54 43 -94 91 -109 131 -28 75 -30 76
-30 37 -1 -21 4 -57 11 -81 11 -42 10 -45 -37 -123 -26 -43 -66 -106 -87 -138
-28 -42 -36 -61 -27 -66 6 -5 49 -11 95 -15 62 -5 96 -3 136 9 63 18 92 38
196 138 75 72 78 76 63 97 -14 22 -14 22 21 16 31 -6 42 -2 89 34 66 51 250
142 344 171 39 12 99 23 136 26 l65 4 51 -53 c28 -28 54 -63 58 -77 5 -14 19
-42 32 -64 l25 -38 -28 -29 c-19 -20 -28 -41 -31 -76 -4 -42 0 -57 37 -121
l41 -74 -10 -61 c-6 -34 -20 -96 -31 -137 -26 -91 -23 -192 8 -262 19 -43 19
-51 7 -100 -7 -29 -28 -94 -46 -144 -33 -90 -33 -93 -21 -162 10 -63 26 -110
53 -164 5 -10 9 -25 9 -33 0 -8 5 -15 11 -15 13 0 3 55 -15 85 -20 34 -39 103
-32 120 3 9 2 13 -4 10 -11 -7 -13 55 -4 104 5 24 11 31 23 26 12 -5 13 -3 5
5 -14 14 -6 50 11 50 13 0 35 70 35 109 0 33 13 24 42 -29 l28 -49 -20 -45
c-32 -75 -34 -107 -11 -191 12 -43 31 -89 41 -103 18 -22 19 -27 6 -47 -8 -12
-16 -32 -18 -45 -1 -13 -9 -25 -17 -28 -8 -3 -11 0 -7 7 4 6 3 11 -2 11 -27 0
-32 -199 -8 -269 9 -24 16 -54 16 -67 0 -13 5 -24 11 -24 5 0 8 -4 4 -9 -3 -5
2 -16 10 -25 14 -14 14 -19 -1 -48 l-17 -32 -28 33 c-15 19 -26 38 -23 42 2 4
-1 11 -8 16 -19 12 -48 69 -40 78 4 5 2 5 -5 2 -15 -9 -34 49 -29 91 2 21 -1
32 -9 32 -21 0 -23 23 -3 40 13 11 15 19 8 30 -8 13 -10 12 -10 -2 0 -10 -4
-18 -10 -18 -5 0 -10 8 -10 19 0 28 25 83 34 74 4 -5 7 -3 6 2 -5 24 1 27 16
9 8 -10 12 -13 8 -5 -4 8 -10 27 -13 43 -6 29 -6 29 -34 -25 -54 -107 -29
-223 89 -402 41 -63 86 -116 78 -92 -4 10 0 25 9 35 8 9 33 52 56 94 35 67 41
86 41 139 0 34 -3 59 -8 55 -4 -4 -14 -42 -23 -84 -17 -82 -29 -97 -47 -57
-15 32 -15 38 -2 30 6 -3 10 -3 10 0 0 9 -32 40 -39 38 -11 -4 -18 32 -10 57
7 23 7 23 8 -7 1 -26 5 -33 21 -33 11 0 20 5 20 11 0 5 -5 7 -12 3 -8 -5 -10
22 -5 107 6 114 22 183 76 317 28 69 28 118 1 125 -18 5 -20 0 -20 -44 0 -28
-5 -49 -11 -49 -5 0 -8 4 -5 9 3 5 -1 15 -10 22 -14 11 -18 11 -29 -4 -15 -21
-25 -22 -25 -2 0 8 -5 23 -11 33 -9 14 -8 26 4 53 8 19 25 63 37 99 12 36 54
126 92 201 56 111 69 144 67 176 -2 30 -7 40 -18 38 -9 -1 -16 -12 -17 -26 -1
-40 -16 -89 -26 -89 -6 0 -8 -7 -4 -15 3 -10 -3 -17 -19 -21 -25 -6 -33 -19
-16 -26 5 -2 4 -11 -3 -21 -12 -16 -15 -15 -29 15 -8 18 -21 68 -28 111 -12
72 -12 80 8 127 l21 50 -23 0 c-21 0 -25 -6 -31 -46 -8 -57 1 -154 26 -263 13
-59 16 -90 9 -103 -6 -10 -14 -16 -19 -13 -6 3 -7 -1 -4 -9 3 -8 0 -24 -6 -36
-12 -22 -12 -22 -31 10 -11 17 -17 35 -14 40 3 4 -2 10 -10 14 -8 3 -15 14
-15 25 0 11 -3 21 -7 23 -5 2 -16 26 -25 53 -17 51 -17 183 0 195 8 5 42 73
42 84 0 4 -10 2 -22 -5 -17 -9 -20 -9 -15 2 3 8 12 30 20 49 8 19 13 43 12 53
-4 24 -1 22 30 -23 44 -63 41 -39 -4 36 -57 95 -81 163 -82 240 -2 85 13 104
59 77 44 -25 50 -44 10 -36 l-31 6 29 -32 c16 -18 51 -65 77 -104 39 -58 47
-78 43 -102 -17 -95 -18 -105 -8 -105 6 0 14 10 18 23 4 12 19 49 34 82 16 33
31 76 35 95 8 37 32 80 45 80 13 0 28 -59 35 -138 4 -41 10 -70 14 -65 4 4 19
49 35 98 15 50 32 100 38 112 7 14 9 52 5 99 -4 61 -10 81 -28 100 -13 14 -29
22 -36 20 -7 -3 -12 0 -10 5 1 7 -28 13 -74 16 l-76 4 -1 -42 c-2 -48 -16 -69
-45 -69 -20 0 -20 -1 -2 -13 17 -13 17 -15 -5 -45 -13 -18 -27 -32 -31 -32 -9
0 -70 76 -86 107 -14 27 -11 28 28 7 17 -8 34 -13 37 -9 3 3 -4 8 -17 12 -12
3 -20 11 -17 18 2 7 -24 42 -58 78 -40 41 -66 77 -69 97 -6 25 -11 31 -29 28
-15 -2 -23 2 -23 12 0 8 -4 18 -9 22 -6 4 -5 12 3 21 10 12 7 17 -17 28 -20 8
-28 18 -25 30 5 19 -33 69 -53 69 -6 0 -15 8 -18 17 -6 15 -8 15 -17 3 -8 -13
-10 -13 -18 0 -5 8 -8 17 -5 21 2 4 0 10 -5 14 -5 3 -8 14 -6 25 2 13 -2 20
-11 20 -9 0 -14 10 -14 28 0 19 3 23 9 13 7 -11 9 -11 14 0 4 10 6 10 6 -2 1
-9 7 -19 14 -22 10 -4 13 2 9 19 -2 13 -8 24 -13 24 -5 0 -9 15 -9 34 0 19 -4
38 -10 41 -5 3 -10 22 -10 41 0 34 -21 70 -34 57 -3 -4 -6 -1 -6 5 0 6 5 14
10 17 6 3 10 17 10 31 0 14 -4 23 -8 20 -4 -2 -9 32 -11 77 -1 45 -6 86 -10
92 -5 5 -11 22 -13 38 l-5 27 86 -1 c102 -1 146 13 211 67 49 40 113 130 140
196 8 20 18 40 23 44 4 4 7 20 7 35 0 17 9 34 24 46 29 22 80 168 101 289 9
54 15 157 16 273 1 186 3 190 28 81 5 -19 13 -46 19 -60 9 -20 10 -15 5 30 -3
30 -9 62 -13 70 -9 17 -24 170 -25 242 0 25 -3 50 -7 54 -5 4 -8 -8 -8 -27 0
-19 -5 -41 -10 -49 -8 -12 -10 -10 -10 11 0 14 -11 57 -24 96 -21 63 -22 72
-9 94 15 25 152 129 170 129 6 0 16 7 23 15 7 8 9 15 6 15 -15 0 -153 -68
-190 -93 -21 -15 -42 -27 -45 -27 -3 0 -31 41 -61 91 -94 155 -230 278 -407
367 -70 36 -227 92 -255 92 -18 0 -19 -2 -7 -17z m844 -3194 c41 -36 42 -43
15 -66 -11 -10 -20 -24 -20 -31 0 -8 -13 -30 -30 -49 -16 -18 -30 -38 -30 -44
0 -20 -21 3 -45 51 -31 60 -31 60 0 96 13 15 22 30 20 33 -6 5 35 41 46 41 5
0 24 -14 44 -31z"/>
<path d="M2774 5133 c7 -53 50 -153 65 -153 6 0 11 21 11 47 0 27 6 53 15 63
8 9 16 26 18 38 2 12 6 25 10 28 18 18 2 24 -59 24 l-67 0 7 -47z"/>
<path d="M3780 5169 c0 -6 9 -13 20 -16 11 -3 20 -9 20 -13 0 -7 39 -22 63
-24 4 -1 12 -8 17 -16 5 -8 12 -11 16 -7 4 4 16 0 25 -9 10 -9 29 -17 41 -18
38 -2 33 -45 -6 -59 -17 -6 -32 -10 -33 -9 -2 1 -11 -6 -21 -15 -10 -10 -29
-25 -41 -33 -123 -81 -195 -175 -237 -310 -19 -59 -21 -61 -84 -74 -3 -1 -12
-8 -21 -16 -14 -13 -14 -19 3 -62 10 -27 18 -61 18 -77 0 -16 12 -49 26 -75
14 -25 23 -50 20 -55 -4 -5 -2 -12 2 -15 5 -3 10 -40 11 -83 1 -42 7 -83 12
-90 10 -12 7 -62 -6 -82 -3 -6 -2 -11 3 -11 6 0 8 -10 4 -22 -4 -18 -8 -14
-19 23 -8 24 -15 52 -14 62 0 9 -4 15 -10 12 -5 -4 -9 2 -9 13 0 10 -9 37 -20
60 -11 22 -20 45 -20 50 0 5 -9 17 -20 27 -11 10 -20 26 -20 37 0 12 -7 18
-21 18 -15 0 -19 4 -15 16 8 20 -21 67 -35 58 -6 -3 -17 2 -24 12 -8 11 -14
15 -14 9 0 -18 24 -42 37 -38 8 3 10 -1 6 -11 -4 -9 4 -40 17 -69 35 -82 57
-168 90 -357 35 -200 34 -257 -5 -391 -23 -77 -24 -85 -9 -96 14 -11 15 -16 3
-37 -10 -20 -17 -23 -31 -16 -28 16 -89 95 -156 204 -50 81 -59 103 -50 115 9
12 9 13 0 8 -7 -5 -19 0 -27 10 -9 10 -31 35 -50 56 -19 21 -37 54 -41 73 -4
26 -11 34 -23 32 -15 -3 -17 -18 -16 -128 1 -81 -2 -127 -9 -132 -6 -4 -8 -10
-3 -15 4 -4 12 0 17 10 6 9 15 14 21 11 6 -4 13 -3 17 2 9 13 58 44 70 44 20
0 61 -86 61 -128 0 -23 -1 -42 -3 -42 -26 0 -117 37 -130 53 -18 22 -19 22
-13 -23 3 -25 8 -60 12 -79 l7 -35 -60 60 c-33 32 -74 72 -92 89 -18 16 -54
63 -81 105 -72 110 -114 170 -121 170 -4 0 -10 -8 -13 -17 -4 -11 7 -37 31
-72 47 -69 204 -257 245 -293 26 -23 29 -30 18 -43 -8 -9 -8 -15 -2 -15 6 0
14 5 17 10 10 15 25 12 19 -5 -4 -10 1 -13 20 -12 34 3 38 -17 4 -21 -31 -4
-37 -26 -14 -57 13 -18 14 -17 20 12 l7 31 24 -24 c24 -24 49 -24 59 2 3 8 19
14 35 14 24 0 32 -5 37 -25 4 -15 1 -32 -7 -43 -12 -16 -12 -16 5 -1 23 21 32
98 16 128 -20 38 -4 35 41 -6 l42 -40 -24 -48 c-27 -55 -68 -78 -124 -72 -19
3 -35 0 -35 -6 0 -8 67 -6 135 5 18 3 20 -2 17 -37 -4 -64 -40 -173 -65 -196
-18 -17 -30 -20 -69 -15 -27 3 -48 3 -48 1 0 -9 77 -43 112 -49 42 -8 90 13
135 58 14 14 29 26 32 26 4 0 8 12 9 26 1 15 8 34 15 43 11 14 10 14 -5 2 -15
-11 -18 -11 -18 2 0 8 -9 17 -20 20 -11 3 -20 12 -20 21 0 9 -8 16 -20 16 -16
0 -18 4 -10 23 5 12 11 38 15 58 4 25 12 38 25 42 24 6 30 0 30 -35 0 -18 5
-28 14 -28 21 0 66 44 66 64 0 13 5 16 21 11 20 -7 22 -5 16 28 -9 60 46 106
59 50 12 -56 16 -63 31 -63 9 0 14 -3 11 -6 -6 -6 16 -109 34 -160 10 -27 20
-34 70 -50 52 -15 67 -16 121 -5 97 20 206 81 289 162 43 42 111 153 97 158
-7 2 -15 -1 -17 -7 -2 -6 -9 -9 -17 -6 -13 5 -50 -27 -72 -62 -25 -41 -1 71
47 219 37 116 46 154 38 165 -10 11 -14 9 -25 -10 -12 -22 -13 -21 -7 14 5 31
-1 47 -37 110 -23 40 -66 104 -95 143 -29 38 -51 71 -49 73 2 2 17 -4 34 -12
36 -19 81 -21 104 -3 16 11 16 16 -2 88 -11 42 -26 91 -33 110 -8 19 -20 63
-28 99 -12 61 -28 113 -65 218 -8 24 -13 47 -10 52 3 4 0 10 -6 12 -13 4 -38
131 -38 196 -1 27 5 48 17 60 9 9 25 30 35 45 12 19 26 27 47 27 19 0 34 7 42
20 17 26 48 25 84 -2 15 -13 25 -17 20 -10 -10 17 0 15 18 -4 9 -9 22 -17 29
-19 37 -9 57 -18 57 -26 0 -5 9 -9 19 -9 11 0 26 -6 33 -13 15 -15 46 -30 68
-32 30 -4 60 -17 60 -26 0 -5 8 -9 18 -9 9 0 34 -11 54 -25 20 -14 44 -25 52
-25 9 0 16 -5 16 -11 0 -6 6 -9 14 -6 8 3 17 -1 20 -9 3 -8 11 -14 18 -14 9 0
8 3 -2 10 -9 6 -10 10 -3 10 6 0 19 -7 27 -16 9 -8 21 -12 27 -8 8 4 9 3 5 -4
-4 -7 -1 -13 6 -14 7 0 18 -2 23 -3 19 -3 70 -29 88 -43 9 -9 17 -12 17 -9 0
4 16 -2 36 -13 19 -11 39 -18 43 -16 4 3 17 -3 27 -13 11 -9 25 -16 32 -13 6
2 12 -1 12 -7 0 -6 9 -11 19 -11 11 0 23 -5 26 -10 15 -24 25 7 25 78 l-1 77
-38 18 c-20 9 -41 17 -44 17 -4 0 -35 13 -69 29 -182 84 -220 101 -227 101 -9
0 -151 59 -214 90 -38 18 -45 25 -36 36 14 17 5 18 -22 4 -14 -8 -26 -7 -47 4
-15 8 -54 27 -87 41 -107 47 -105 46 -99 74 3 14 15 33 25 43 10 9 19 19 19
22 0 3 -126 6 -280 6 -196 0 -280 -3 -280 -11z"/>
<path d="M2570 3654 c0 -3 5 -14 10 -25 12 -21 1 -26 -18 -7 -9 9 -9 2 -1 -26
6 -21 8 -40 5 -44 -3 -3 -6 3 -6 12 0 11 -5 15 -12 12 -7 -3 -21 -9 -30 -12
-10 -4 -18 -13 -18 -21 0 -9 -20 5 -46 33 -30 31 -44 41 -40 27 5 -16 -2 -26
-30 -48 -45 -35 -78 -35 -114 0 l-28 27 -7 -43 c-8 -46 -43 -89 -73 -89 -15 0
-22 -9 -26 -35 -6 -30 -1 -44 29 -89 19 -29 35 -58 35 -64 0 -6 6 -9 14 -6 8
3 47 -2 86 -12 90 -22 102 -13 14 11 -56 15 -70 24 -95 58 -36 49 -36 57 -1
89 31 29 55 42 95 52 26 6 27 5 18 -13 -17 -31 -13 -98 9 -138 11 -21 20 -31
20 -22 0 8 -6 21 -12 28 -10 11 -10 14 0 18 6 3 12 11 12 19 0 20 10 17 31
-10 20 -26 56 -25 66 0 9 25 73 14 73 -13 0 -8 5 -11 10 -8 6 3 10 17 10 31 0
28 2 29 41 8 17 -8 33 -14 35 -12 2 2 -24 34 -57 70 -45 50 -55 66 -40 65 11
0 18 -4 16 -7 -6 -10 59 -77 115 -118 64 -47 165 -95 189 -89 12 3 2 17 -38
56 -60 57 -64 73 -9 36 20 -13 61 -36 91 -50 79 -38 132 -87 153 -141 15 -38
19 -43 25 -28 11 28 10 66 -2 123 -8 40 -21 60 -66 105 -31 31 -61 56 -68 56
-7 0 -20 9 -31 21 -27 30 -71 51 -79 39 -4 -6 -1 -17 5 -25 13 -16 21 -65 10
-65 -4 0 -13 7 -20 15 -7 8 -16 15 -21 15 -24 0 -101 67 -128 110 -17 28 -36
50 -43 50 -6 0 -8 3 -4 8 4 4 12 7 17 7 5 0 8 5 7 10 -2 6 -14 9 -27 7 -21 -3
-23 -1 -12 12 10 12 9 17 -8 25 -22 12 -31 14 -31 5z"/>
<path d="M5128 3437 c-20 -23 -54 -62 -75 -87 -21 -25 -53 -59 -70 -77 -18
-18 -33 -36 -33 -40 0 -5 -14 -23 -30 -42 -17 -18 -30 -38 -30 -43 0 -5 -4 -6
-10 -3 -5 3 -10 2 -10 -4 0 -5 -10 -21 -22 -35 -13 -14 -34 -40 -48 -57 -14
-18 -51 -60 -83 -93 -32 -34 -64 -71 -70 -83 -7 -12 -28 -39 -48 -60 -19 -21
-64 -72 -99 -113 -84 -98 -81 -95 -107 -97 -12 -1 -28 -6 -35 -12 -54 -45
-115 -83 -160 -102 -29 -12 -60 -30 -70 -40 -9 -11 -23 -19 -31 -19 -7 0 -22
-9 -31 -19 -10 -10 -38 -24 -64 -31 -26 -7 -41 -15 -34 -17 14 -6 16 -43 2
-43 -5 0 -10 -7 -10 -15 0 -50 -85 38 -145 150 -23 44 -47 81 -53 83 -6 2 -19
-9 -28 -25 -60 -97 -92 -140 -126 -174 l-39 -37 58 -60 c72 -73 119 -102 168
-102 26 0 56 -12 99 -38 34 -21 73 -43 89 -50 15 -6 27 -16 27 -22 0 -5 3 -9
8 -8 12 3 62 -24 62 -34 0 -4 -6 -8 -13 -8 -8 0 -22 -9 -32 -20 -16 -18 -19
-18 -41 -3 -37 24 -28 -1 11 -31 58 -44 138 -76 209 -83 36 -3 66 -9 66 -14 0
-7 -105 -90 -137 -108 -12 -6 -11 -15 8 -54 13 -26 26 -47 29 -47 23 0 128
143 165 223 13 28 22 36 34 31 28 -11 83 -26 86 -22 6 5 -29 42 -56 60 -25 16
-27 23 -31 105 -3 48 -8 96 -12 106 -16 34 11 16 103 -73 52 -50 98 -90 103
-90 4 0 8 -7 8 -15 0 -9 8 -19 17 -22 10 -4 29 -18 43 -32 14 -14 66 -62 115
-106 49 -44 103 -93 120 -110 17 -16 73 -68 125 -115 52 -47 109 -100 128
-117 18 -18 37 -33 42 -33 6 0 10 33 10 73 l0 73 -137 122 c-76 67 -156 139
-179 159 -23 21 -85 76 -140 123 -54 47 -128 112 -164 145 -36 33 -86 79 -113
101 -48 42 -56 61 -35 82 11 11 9 21 -18 102 -5 13 -4 13 5 0 9 -12 11 -11 11
8 0 13 16 39 36 60 20 20 60 66 89 102 66 83 168 195 217 240 21 20 38 38 38
42 0 4 16 24 36 45 20 21 64 70 97 108 149 174 174 203 214 244 l43 44 0 98
c0 55 -3 99 -7 98 -5 0 -25 -19 -45 -42z"/>
<path d="M3710 3005 c-7 -8 -9 -15 -4 -15 5 0 1 -5 -8 -11 -10 -5 -18 -14 -18
-20 0 -5 -12 -21 -27 -34 -16 -13 -22 -25 -15 -25 7 0 -4 -15 -24 -32 -68 -60
-136 -133 -145 -156 -5 -13 -9 -39 -9 -58 0 -19 -4 -34 -9 -34 -18 0 -18 -64
-1 -92 l17 -29 12 63 c16 85 38 133 67 147 13 6 24 17 24 26 0 8 7 15 14 15
22 0 72 56 117 132 32 52 39 74 35 98 -6 40 -10 44 -26 25z"/>
<path d="M3240 2834 c-21 -22 -344 -298 -385 -328 -8 -6 -37 -2 -81 13 -81 25
-284 112 -284 120 0 3 16 17 35 30 37 25 88 93 100 133 6 19 1 17 -29 -14 -19
-21 -43 -38 -53 -38 -10 0 -29 -6 -43 -13 -45 -24 -145 -29 -193 -10 -46 18
-133 71 -158 95 -21 22 -89 31 -89 12 0 -8 -5 -14 -11 -14 -5 0 -7 5 -3 12 4
6 3 8 -4 4 -5 -3 -13 0 -15 6 -4 9 -6 8 -6 -3 -1 -13 105 -133 119 -135 16 -2
60 -29 60 -36 0 -4 8 -8 18 -8 36 0 52 -22 45 -64 -5 -33 -7 -36 -17 -20 -9
17 -11 16 -16 -11 -3 -20 -12 -31 -25 -33 -12 -2 -26 -12 -33 -23 -11 -17 -8
-25 18 -58 36 -44 127 -124 153 -134 9 -3 17 -11 17 -17 0 -12 -17 -14 -22 -2
-1 5 -20 12 -40 15 -32 5 -38 3 -38 -12 0 -19 33 -38 101 -60 44 -14 57 -50
60 -161 3 -107 -9 -162 -46 -224 l-32 -54 39 -46 c28 -32 38 -52 33 -65 -4
-14 0 -23 15 -31 11 -6 24 -9 29 -6 4 3 23 -10 40 -28 l33 -34 -23 -34 c-49
-71 -58 -86 -88 -146 -36 -71 -38 -82 -13 -59 10 10 21 15 24 12 2 -3 15 19
29 48 13 28 36 69 51 90 15 21 29 44 31 50 3 9 9 8 21 -2 17 -15 17 -40 1 -83
-4 -11 -3 -18 4 -18 6 0 11 6 11 14 0 7 7 19 15 26 13 11 21 8 51 -21 19 -18
32 -39 29 -46 -18 -46 -18 -46 -4 -38 8 5 11 5 6 -1 -5 -5 -14 -9 -20 -9 -5 0
-12 -5 -14 -12 -6 -18 55 -13 62 5 3 9 1 20 -5 26 -5 5 -10 15 -10 21 0 5 5 2
11 -7 5 -9 16 -15 23 -12 8 3 17 1 21 -5 11 -19 31 -12 79 30 43 38 48 40 64
26 16 -15 19 -13 35 23 9 22 14 46 11 54 -3 9 14 35 45 68 28 29 51 62 51 73
0 11 13 52 29 90 27 65 52 159 66 248 7 44 0 46 93 -28 43 -34 52 -47 58 -85
4 -25 13 -62 20 -83 11 -31 146 -269 203 -357 16 -26 41 -38 41 -20 0 6 -6 10
-14 10 -7 0 -16 9 -19 20 -3 11 -1 18 4 14 5 -3 9 0 9 5 0 6 -10 11 -22 12
l-23 0 23 9 c30 12 28 30 -3 24 -21 -4 -27 2 -45 40 -11 25 -25 48 -31 51 -6
4 -8 14 -5 22 3 8 -3 24 -14 35 -11 12 -20 34 -20 49 0 15 -6 30 -12 33 -10 3
-8 9 5 19 19 15 14 42 -8 51 -10 4 -12 13 -6 34 10 32 7 36 -59 82 -48 33 -74
63 -123 145 -41 69 -42 72 -43 168 -1 53 1 97 5 97 4 0 18 25 30 55 13 30 27
55 33 55 5 0 6 4 3 10 -3 6 1 7 10 4 12 -5 16 -2 13 12 -2 11 3 19 11 19 8 0
15 11 16 24 1 14 7 27 13 29 7 2 12 10 12 17 0 7 6 16 13 18 10 4 10 6 0 6 -7
1 -13 6 -13 12 0 6 7 8 16 5 8 -3 13 -2 9 3 -5 9 49 61 64 61 5 0 11 26 14 58
4 31 9 67 13 78 5 19 1 22 -43 27 -26 3 -57 8 -68 12 -15 4 -28 -2 -45 -21z"/>
<path d="M3513 2156 c-6 -20 -9 -81 -6 -143 3 -59 1 -126 -4 -148 l-9 -39 -29
44 c-32 46 -67 71 -46 32 17 -32 14 -44 -8 -32 -11 5 -23 10 -28 10 -4 -1 3
-7 17 -14 14 -8 28 -12 31 -10 8 4 64 -107 109 -215 25 -62 27 -73 14 -85 -19
-20 -18 -40 2 -32 12 5 15 2 10 -10 -3 -8 -6 -21 -6 -27 0 -7 -4 -6 -10 3 -8
12 -10 11 -10 -7 0 -13 5 -23 10 -23 16 0 12 -40 -5 -46 -9 -4 -15 -19 -15
-38 0 -32 47 -189 65 -216 33 -49 34 -61 25 -158 -5 -53 -10 -144 -10 -201 0
-88 2 -102 14 -92 9 7 17 8 20 2 5 -8 -4 -34 -47 -133 -8 -18 -17 -26 -27 -23
-13 4 -18 -9 -28 -67 -12 -72 -8 -117 11 -129 5 -4 5 -14 -1 -25 -6 -11 -8
-32 -5 -47 4 -20 1 -27 -11 -27 -9 0 -16 -4 -16 -10 0 -51 -67 77 -77 146 -5
37 -3 44 11 44 9 0 16 5 16 11 0 5 -5 7 -10 4 -6 -3 -13 2 -17 11 -4 10 -2 19
5 22 6 2 9 9 6 16 -6 15 32 66 49 66 7 0 21 13 32 28 15 21 15 24 2 13 -15
-12 -17 -11 -18 10 -1 21 -2 21 -6 4 -3 -11 -19 -35 -35 -54 -35 -40 -63 -101
-51 -110 4 -3 8 -31 9 -61 0 -39 9 -73 30 -115 15 -33 27 -64 26 -69 -2 -5 6
-18 16 -30 10 -11 23 -30 27 -41 8 -19 8 -19 13 -1 2 10 -1 22 -8 26 -7 5 -3
13 14 24 14 9 29 29 32 44 4 15 22 58 41 97 38 81 41 105 13 105 -11 0 -20 -7
-20 -16 0 -8 5 -12 10 -9 13 8 13 2 -2 -30 -6 -14 -15 -25 -20 -25 -4 0 -8 -9
-8 -20 0 -13 -7 -20 -20 -20 -11 0 -20 5 -20 10 0 6 7 10 15 10 8 0 15 5 15
10 0 6 -7 10 -15 10 -31 0 -16 72 45 220 74 177 92 228 87 243 -2 6 -15 -13
-29 -43 -27 -56 -31 -55 -42 8 -4 23 -2 34 9 38 10 4 12 11 6 22 -10 19 3 277
19 367 13 78 13 172 0 180 -8 5 -7 11 1 21 6 8 9 18 5 21 -11 11 -26 -20 -20
-39 4 -13 0 -18 -15 -18 -25 0 -28 -15 -5 -24 8 -3 12 -2 9 4 -3 6 -1 10 6 10
8 0 10 -17 7 -55 -5 -54 -20 -86 -35 -71 -4 4 -1 11 7 16 12 7 12 12 2 22 -9
9 -12 9 -12 -5 0 -24 -27 -21 -41 5 -13 24 -7 163 13 282 10 58 9 71 -3 80 -8
6 -21 27 -29 46 -7 19 -17 40 -21 45 -4 6 6 60 22 120 37 143 37 207 2 280
-15 30 -30 55 -33 55 -4 0 -11 -15 -17 -34z"/>
<path d="M502 1611 c-14 -25 -29 -48 -32 -51 -3 -3 -16 -25 -29 -50 -13 -25
-30 -52 -36 -60 -7 -8 -21 -31 -30 -50 -10 -19 -21 -37 -24 -40 -12 -9 -50
-80 -44 -80 4 0 31 25 60 56 30 31 57 54 60 50 3 -3 -14 -27 -38 -54 -39 -42
-85 -95 -159 -182 -12 -14 -36 -41 -53 -60 -18 -19 -48 -55 -69 -80 -20 -25
-52 -62 -72 -84 l-36 -39 0 -298 c0 -197 3 -299 10 -299 19 0 125 167 143 225
30 98 41 148 61 262 15 86 29 138 40 149 10 9 31 41 48 70 33 60 54 80 38 38
-6 -15 -15 -52 -20 -83 -5 -31 -14 -78 -20 -106 -6 -27 -13 -70 -16 -95 -4
-25 -10 -49 -14 -55 -4 -5 -11 -28 -14 -50 -4 -22 -17 -60 -29 -85 -11 -25
-22 -49 -22 -55 -4 -25 -25 -61 -44 -78 -12 -9 -24 -31 -28 -48 -4 -22 -8 -27
-14 -17 -7 10 -9 10 -9 1 0 -21 -3 -25 -43 -65 -21 -21 -45 -38 -53 -38 -11 0
-14 -24 -14 -130 l0 -130 120 0 120 0 93 118 c52 64 104 128 116 141 11 13 21
27 21 30 0 3 16 24 36 46 20 22 47 57 61 78 13 21 30 40 38 44 8 3 15 11 15
17 0 7 15 28 33 48 53 59 67 78 67 88 0 6 4 10 9 10 5 0 12 8 16 18 3 9 17 31
31 47 l25 30 -11 -28 c-5 -16 -10 -38 -10 -49 0 -32 -51 -138 -63 -131 -6 4
-7 1 -2 -6 4 -8 -1 -25 -14 -42 -11 -15 -21 -31 -21 -35 0 -4 -31 -59 -69
-123 -71 -119 -121 -220 -121 -243 0 -7 16 -23 36 -36 30 -20 46 -22 112 -20
l77 3 22 65 c29 86 28 96 -4 65 -21 -19 -25 -28 -15 -34 15 -9 6 -41 -12 -41
-14 0 -101 54 -110 68 -10 16 30 25 54 12 22 -12 53 -1 68 25 14 26 201 40
377 28 128 -8 162 -14 235 -41 83 -30 85 -31 99 -12 7 11 22 20 32 20 22 0 25
-15 7 -27 -7 -4 -19 -18 -26 -31 -12 -21 -11 -22 15 -16 57 12 84 27 78 42 -4
11 0 13 21 8 l27 -7 -22 33 c-13 18 -30 45 -39 60 -20 33 -31 36 -97 26 -27
-3 -85 -7 -129 -7 -69 -1 -77 1 -66 14 11 13 7 15 -23 15 -20 0 -39 5 -42 10
-9 15 -380 3 -463 -15 -37 -7 -75 -17 -84 -20 -21 -8 -24 10 -5 22 8 4 26 33
41 63 15 30 44 84 65 120 21 36 61 105 89 154 29 49 52 92 52 97 0 4 -10 11
-22 15 -38 12 -137 93 -154 127 -13 24 -15 49 -11 116 4 72 2 90 -13 111 -25
36 -80 147 -80 162 0 8 13 13 33 13 27 0 32 3 30 23 -2 19 2 22 36 22 24 0 44
7 54 18 27 30 21 41 -18 32 -60 -13 -100 7 -176 88 -38 41 -69 78 -69 83 0 9
28 12 121 9 32 -1 59 3 62 7 3 5 -24 36 -59 69 l-65 60 -27 -45z"/>
<path d="M5040 799 c0 -127 -15 -201 -52 -248 -19 -25 -25 -71 -9 -71 5 0 12
-12 15 -26 10 -40 34 -15 80 85 14 28 14 40 4 68 -10 27 -10 36 0 42 10 6 9
35 -3 137 -8 71 -15 130 -15 131 0 2 -4 3 -10 3 -6 0 -10 -47 -10 -121z"/>
<path d="M2484 743 c5 -27 4 -34 -3 -23 -9 13 -10 13 -14 0 -29 -93 -96 -303
-118 -371 -16 -48 -29 -94 -29 -103 0 -15 -7 -16 -47 -10 -27 4 -50 10 -53 14
-3 4 -18 -1 -33 -10 -18 -11 -24 -19 -16 -22 9 -3 4 -16 -16 -42 -24 -32 -30
-35 -35 -20 -6 16 -7 16 -13 1 -3 -8 -1 -17 6 -20 8 -2 6 -9 -6 -22 -29 -29
-4 -42 31 -16 41 29 45 27 22 -11 -11 -18 -20 -45 -20 -60 l0 -28 79 0 c44 0
81 4 83 9 8 23 234 35 639 36 l416 0 -15 -22 c-14 -23 -8 -28 22 -17 9 3 16
13 16 20 0 8 12 32 26 53 21 33 24 43 14 61 -9 17 -17 20 -43 15 -30 -6 -31
-5 -13 9 10 9 23 13 27 10 11 -7 11 -1 -1 31 -7 17 -7 33 0 45 8 14 5 19 -11
23 -18 5 -20 2 -17 -18 5 -23 2 -24 -66 -29 -75 -6 -474 -20 -566 -20 -117 0
-320 10 -326 17 -8 8 6 71 56 247 18 63 33 126 34 140 1 14 3 27 6 30 23 22
39 100 20 100 -6 0 -8 -11 -6 -25 3 -14 1 -23 -4 -20 -4 3 -10 -1 -13 -7 -2
-7 -8 -9 -13 -5 -5 5 -1 13 8 18 14 8 15 15 8 34 -6 16 -6 27 2 31 7 4 8 3 4
-4 -4 -7 -1 -12 8 -12 10 0 13 6 10 15 -4 8 -15 15 -26 15 -18 0 -19 -4 -14
-37z"/>
<path d="M4240 691 c0 -21 -7 -57 -15 -80 l-14 -42 44 -19 c64 -28 120 -45
205 -65 41 -9 97 -23 124 -31 26 -8 61 -14 76 -14 16 0 36 -7 44 -16 18 -18
21 -28 6 -19 -6 4 -17 2 -25 -5 -8 -7 -29 -9 -52 -5 -33 5 -35 4 -18 -6 28
-17 28 -16 19 -31 -5 -7 -9 -17 -10 -23 -1 -5 -3 -17 -5 -25 -2 -8 3 -15 11
-15 8 0 14 6 12 13 -1 6 3 12 8 12 6 0 10 -6 9 -13 -3 -23 1 -40 7 -34 4 3 18
-2 32 -13 13 -11 29 -17 34 -14 6 4 5 10 -3 15 -12 7 -11 9 1 10 8 1 20 1 26
0 17 -2 37 27 31 43 -7 18 17 28 44 18 19 -7 20 -10 6 -23 -13 -13 -10 -16 19
-25 26 -8 34 -8 38 3 3 7 19 13 35 13 23 0 34 8 50 34 12 19 18 41 15 50 -7
17 -29 22 -38 7 -3 -5 -15 -11 -27 -14 -16 -4 -19 -3 -10 6 16 16 14 27 -6 28
-15 0 -15 2 2 9 18 7 18 8 -7 15 -16 4 -28 10 -28 15 0 4 -19 15 -42 26 -24
10 -47 24 -51 31 -9 15 -43 17 -52 3 -8 -13 -60 14 -68 35 -4 8 -2 15 3 15 6
0 10 5 10 10 0 6 -9 10 -20 10 -11 0 -20 4 -20 10 0 5 -13 7 -29 4 -17 -4 -41
0 -59 10 -17 9 -42 16 -55 16 -12 0 -27 4 -32 9 -6 5 -27 19 -49 31 -38 21
-39 21 -33 1 4 -18 3 -19 -16 -9 -12 6 -24 14 -27 17 -7 9 -88 61 -95 61 -3 0
-5 -17 -5 -39z"/>
<path d="M1805 215 c3 -27 19 -78 36 -112 20 -40 28 -69 24 -82 -5 -18 -2 -21
20 -21 23 0 25 3 22 33 -2 18 -18 54 -35 79 -18 26 -32 57 -31 70 0 23 0 23
11 2 5 -12 22 -28 37 -35 14 -8 28 -16 31 -20 3 -3 22 -18 42 -33 27 -20 38
-36 40 -59 2 -20 9 -33 20 -35 14 -3 16 1 9 25 -4 15 -7 38 -5 50 3 17 0 21
-12 16 -11 -4 -44 22 -105 83 -67 67 -89 84 -90 69 0 -20 -1 -20 -10 0 -7 14
-8 6 -4 -30z"/>
<path d="M3980 256 c0 -3 4 -16 10 -30 5 -14 12 -46 15 -72 l5 -48 -21 20
c-16 14 -21 15 -17 4 2 -8 14 -19 26 -25 11 -5 23 -16 25 -25 3 -8 8 -24 12
-35 7 -17 3 -16 -21 7 -34 31 -135 88 -156 88 -8 0 -20 -12 -27 -27 -10 -22
-10 -28 3 -35 10 -6 16 -23 16 -43 l0 -35 110 0 c107 0 110 1 110 23 0 12 -6
33 -13 47 -7 14 -12 37 -12 53 1 15 -3 27 -8 27 -4 0 -5 4 -2 10 3 6 0 10 -7
10 -8 0 -9 3 -3 8 6 4 10 13 9 20 -1 6 -2 16 -3 21 -2 20 -51 55 -51 37z"/>
<path d="M4150 220 c0 -30 49 -156 72 -184 l29 -36 290 0 c224 0 289 3 290 13
2 17 -2 61 -6 65 -2 2 -23 -2 -46 -9 -54 -15 -80 -14 -90 3 -6 9 -9 9 -9 1 0
-6 5 -15 10 -18 21 -13 -1 -22 -45 -19 -35 3 -45 1 -45 -11 0 -8 -4 -15 -10
-15 -5 0 -10 7 -10 15 0 9 -9 15 -25 15 -16 0 -25 6 -25 16 0 8 5 12 10 9 6
-3 10 -1 10 4 0 17 -18 13 -29 -7 -10 -16 -10 -16 -11 1 0 9 -5 17 -11 17 -6
0 -9 -7 -5 -15 3 -8 1 -15 -4 -15 -6 0 -10 7 -10 15 0 21 -16 19 -25 -3 -7
-16 -8 -15 -15 3 -5 11 -9 14 -9 8 -1 -7 -7 -13 -15 -13 -8 0 -13 8 -12 17 0
11 -5 17 -13 15 -21 -5 -71 17 -123 56 -47 33 -60 56 -35 65 6 2 -9 6 -35 8
-27 2 -48 2 -48 -1z"/>
<path d="M5132 137 c-24 -16 -54 -46 -67 -67 -13 -21 -29 -41 -35 -45 -27 -16
-3 -25 70 -25 77 0 80 1 80 23 0 13 -6 29 -12 35 -10 10 -10 14 0 21 8 5 12
23 10 47 l-3 40 -43 -29z"/>
</g>
</svg>
