<svg xmlns="http://www.w3.org/2000/svg" xmlns:xlink="http://www.w3.org/1999/xlink" width="1200" zoomAndPan="magnify" viewBox="0 0 900 899.99999" height="1200" preserveAspectRatio="xMidYMid meet" version="1.0"><defs><g/><clipPath id="18a7f5fdc2"><path d="M 430 568.882812 L 470 568.882812 L 470 596.632812 L 430 596.632812 Z M 430 568.882812 " clip-rule="nonzero"/></clipPath></defs><rect x="-90" width="1080" fill="#ffffff" y="-89.999999" height="1079.999988" fill-opacity="1"/><rect x="-90" width="1080" fill="#ffffff" y="-89.999999" height="1079.999988" fill-opacity="1"/><path fill="#231f20" d="M 424.546875 577.855469 C 430.890625 577.855469 436.03125 580.042969 436.03125 582.738281 C 436.03125 585.433594 430.890625 587.621094 424.546875 587.621094 C 418.199219 587.621094 401.867188 582.738281 401.867188 582.738281 C 401.867188 582.738281 418.199219 577.855469 424.546875 577.855469 " fill-opacity="1" fill-rule="nonzero"/><path fill="#231f20" d="M 475.472656 587.621094 C 469.128906 587.621094 463.984375 585.433594 463.984375 582.738281 C 463.984375 580.042969 469.128906 577.855469 475.472656 577.855469 C 481.816406 577.855469 498.148438 582.738281 498.148438 582.738281 C 498.148438 582.738281 481.816406 587.621094 475.472656 587.621094 " fill-opacity="1" fill-rule="nonzero"/><g clip-path="url(#18a7f5fdc2)"><path fill="#231f20" d="M 430.917969 582.738281 C 438.308594 582.738281 450.007812 574.242188 450.007812 568.871094 C 450.007812 574.242188 461.707031 582.738281 469.097656 582.738281 C 461.707031 582.738281 450.007812 591.238281 450.007812 596.609375 C 450.007812 591.238281 438.308594 582.738281 430.917969 582.738281 " fill-opacity="1" fill-rule="nonzero"/></g><path fill="#231f20" d="M 502.695312 582.738281 C 502.695312 584.308594 500.953125 585.578125 498.792969 585.578125 C 496.636719 585.578125 494.886719 584.308594 494.886719 582.738281 C 494.886719 581.171875 496.636719 579.902344 498.792969 579.902344 C 500.953125 579.902344 502.695312 581.171875 502.695312 582.738281 " fill-opacity="1" fill-rule="nonzero"/><path fill="#231f20" d="M 405.128906 582.738281 C 405.128906 584.308594 403.378906 585.578125 401.222656 585.578125 C 399.070312 585.578125 397.320312 584.308594 397.320312 582.738281 C 397.320312 581.171875 399.070312 579.902344 401.222656 579.902344 C 403.378906 579.902344 405.128906 581.171875 405.128906 582.738281 " fill-opacity="1" fill-rule="nonzero"/><path fill="#231f20" d="M 693.839844 584.902344 L 501.015625 584.902344 C 499.816406 584.902344 498.84375 583.933594 498.84375 582.738281 C 498.84375 581.542969 499.816406 580.578125 501.015625 580.578125 L 693.839844 580.578125 C 695.039062 580.578125 696.011719 581.542969 696.011719 582.738281 C 696.011719 583.933594 695.039062 584.902344 693.839844 584.902344 " fill-opacity="1" fill-rule="nonzero"/><path fill="#231f20" d="M 399 584.902344 L 206.179688 584.902344 C 204.980469 584.902344 204.007812 583.933594 204.007812 582.738281 C 204.007812 581.546875 204.980469 580.578125 206.179688 580.578125 L 399 580.578125 C 400.199219 580.578125 401.171875 581.546875 401.171875 582.738281 C 401.171875 583.933594 400.199219 584.902344 399 584.902344 " fill-opacity="1" fill-rule="nonzero"/><g fill="#000000" fill-opacity="1"><g transform="translate(343.976373, 360.315323)"><g><path d="M 13.0625 0.671875 C 10.664062 0.671875 8.675781 0.148438 7.09375 -0.890625 C 5.519531 -1.941406 4.273438 -4.078125 3.359375 -7.296875 C 2.453125 -10.515625 2 -15.210938 2 -21.390625 C 2 -28.460938 2.640625 -33.90625 3.921875 -37.71875 C 5.210938 -41.539062 6.800781 -44.097656 8.6875 -45.390625 C 10.582031 -46.679688 12.726562 -47.328125 15.125 -47.328125 C 17.351562 -47.328125 18.953125 -46.96875 19.921875 -46.25 C 20.898438 -45.539062 21.390625 -44.675781 21.390625 -43.65625 C 21.390625 -42.457031 21.101562 -41.367188 20.53125 -40.390625 C 19.15625 -41.503906 17.710938 -42.0625 16.203125 -42.0625 C 14.554688 -42.0625 13.109375 -41.535156 11.859375 -40.484375 C 10.617188 -39.441406 9.609375 -37.429688 8.828125 -34.453125 C 8.054688 -31.484375 7.671875 -27.21875 7.671875 -21.65625 C 7.671875 -17.300781 7.9375 -13.925781 8.46875 -11.53125 C 9 -9.132812 9.753906 -7.488281 10.734375 -6.59375 C 11.710938 -5.707031 12.910156 -5.265625 14.328125 -5.265625 C 15.578125 -5.265625 16.753906 -5.472656 17.859375 -5.890625 C 18.972656 -6.316406 19.863281 -6.820312 20.53125 -7.40625 C 21.0625 -6.25 21.328125 -5.15625 21.328125 -4.125 C 21.328125 -2.800781 20.550781 -1.671875 19 -0.734375 C 17.445312 0.203125 15.46875 0.671875 13.0625 0.671875 Z M 13.0625 0.671875 "/></g></g></g><g fill="#000000" fill-opacity="1"><g transform="translate(366.706169, 360.315323)"><g><path d="M 3 -46.53125 C 3 -47.375 3.128906 -47.960938 3.390625 -48.296875 C 3.660156 -48.628906 4.128906 -48.828125 4.796875 -48.890625 C 5.460938 -48.960938 6.640625 -49 8.328125 -49 L 8.328125 -31.390625 C 9.304688 -32.234375 10.472656 -32.878906 11.828125 -33.328125 C 13.179688 -33.773438 14.523438 -34 15.859375 -34 C 18.578125 -34 20.410156 -33.296875 21.359375 -31.890625 C 22.316406 -30.492188 22.796875 -28.265625 22.796875 -25.203125 L 22.796875 -1.0625 C 22.796875 -0.664062 22.695312 -0.398438 22.5 -0.265625 C 22.300781 -0.128906 21.753906 -0.0507812 20.859375 -0.03125 C 19.972656 -0.0078125 18.796875 0 17.328125 0 L 17.328125 -23.734375 C 17.328125 -25.421875 17.0625 -26.71875 16.53125 -27.625 C 16 -28.539062 14.953125 -29 13.390625 -29 C 12.546875 -29 11.679688 -28.851562 10.796875 -28.5625 C 9.910156 -28.269531 9.085938 -27.816406 8.328125 -27.203125 L 8.328125 -1.0625 C 8.328125 -0.664062 8.25 -0.398438 8.09375 -0.265625 C 7.9375 -0.128906 7.425781 -0.0507812 6.5625 -0.03125 C 5.695312 -0.0078125 4.507812 0 3 0 Z M 3 -46.53125 "/></g></g></g><g fill="#000000" fill-opacity="1"><g transform="translate(392.035559, 360.315323)"><g><path d="M 12.265625 0.671875 C 9.773438 0.671875 7.796875 0.25 6.328125 -0.59375 C 4.859375 -1.4375 3.734375 -3.113281 2.953125 -5.625 C 2.179688 -8.144531 1.796875 -11.828125 1.796875 -16.671875 C 1.796875 -28.222656 5.507812 -34 12.9375 -34 C 15.375 -34 17.328125 -33.5 18.796875 -32.5 C 20.265625 -31.5 21.375 -29.742188 22.125 -27.234375 C 22.882812 -24.722656 23.265625 -21.242188 23.265625 -16.796875 C 23.265625 -10.753906 22.34375 -6.332031 20.5 -3.53125 C 18.65625 -0.726562 15.910156 0.671875 12.265625 0.671875 Z M 12.390625 -3.859375 C 13.992188 -3.859375 15.226562 -4.789062 16.09375 -6.65625 C 16.957031 -8.53125 17.390625 -11.910156 17.390625 -16.796875 C 17.390625 -20.265625 17.222656 -22.910156 16.890625 -24.734375 C 16.554688 -26.554688 16.054688 -27.800781 15.390625 -28.46875 C 14.722656 -29.132812 13.835938 -29.46875 12.734375 -29.46875 C 11.085938 -29.46875 9.832031 -28.53125 8.96875 -26.65625 C 8.101562 -24.789062 7.671875 -21.414062 7.671875 -16.53125 C 7.671875 -12.976562 7.847656 -10.289062 8.203125 -8.46875 C 8.554688 -6.644531 9.066406 -5.421875 9.734375 -4.796875 C 10.398438 -4.171875 11.285156 -3.859375 12.390625 -3.859375 Z M 12.390625 -3.859375 "/></g></g></g><g fill="#000000" fill-opacity="1"><g transform="translate(417.098325, 360.315323)"><g><path d="M 3.140625 -30.859375 C 3.140625 -31.703125 3.28125 -32.289062 3.5625 -32.625 C 3.851562 -32.957031 4.332031 -33.15625 5 -33.21875 C 5.664062 -33.289062 6.84375 -33.328125 8.53125 -33.328125 L 8.53125 -1.0625 C 8.53125 -0.664062 8.453125 -0.398438 8.296875 -0.265625 C 8.140625 -0.128906 7.617188 -0.0507812 6.734375 -0.03125 C 5.847656 -0.0078125 4.648438 0 3.140625 0 Z M 5.59375 -38 C 3.8125 -38 2.921875 -39.285156 2.921875 -41.859375 C 2.921875 -44.703125 3.945312 -46.125 6 -46.125 C 6.976562 -46.125 7.664062 -45.832031 8.0625 -45.25 C 8.457031 -44.675781 8.65625 -43.679688 8.65625 -42.265625 C 8.65625 -40.929688 8.390625 -39.882812 7.859375 -39.125 C 7.328125 -38.375 6.570312 -38 5.59375 -38 Z M 5.59375 -38 "/></g></g></g><g fill="#000000" fill-opacity="1"><g transform="translate(428.763173, 360.315323)"><g><path d="M 10.125 0.671875 C 7.6875 0.671875 5.722656 0.382812 4.234375 -0.1875 C 2.742188 -0.769531 2 -1.597656 2 -2.671875 C 2 -3.734375 2.332031 -4.773438 3 -5.796875 C 4.820312 -4.734375 7.019531 -4.203125 9.59375 -4.203125 C 11.332031 -4.203125 12.675781 -4.546875 13.625 -5.234375 C 14.582031 -5.921875 15.0625 -6.929688 15.0625 -8.265625 C 15.0625 -9.242188 14.859375 -10.15625 14.453125 -11 C 14.054688 -11.84375 13.367188 -12.6875 12.390625 -13.53125 L 5.9375 -19.0625 C 3.351562 -21.15625 2.0625 -23.507812 2.0625 -26.125 C 2.0625 -28.570312 2.984375 -30.492188 4.828125 -31.890625 C 6.671875 -33.296875 9.394531 -34 13 -34 C 16.019531 -34 18.160156 -33.597656 19.421875 -32.796875 C 20.691406 -31.992188 21.328125 -31.148438 21.328125 -30.265625 C 21.328125 -29.859375 21.210938 -29.398438 20.984375 -28.890625 C 20.765625 -28.378906 20.503906 -27.925781 20.203125 -27.53125 C 18.242188 -28.726562 16.039062 -29.328125 13.59375 -29.328125 C 12 -29.328125 10.722656 -29.035156 9.765625 -28.453125 C 8.804688 -27.878906 8.328125 -27.082031 8.328125 -26.0625 C 8.328125 -25.394531 8.503906 -24.757812 8.859375 -24.15625 C 9.222656 -23.5625 9.9375 -22.820312 11 -21.9375 L 17.203125 -16.9375 C 18.660156 -15.507812 19.691406 -14.171875 20.296875 -12.921875 C 20.898438 -11.679688 21.203125 -10.238281 21.203125 -8.59375 C 21.203125 -5.664062 20.210938 -3.390625 18.234375 -1.765625 C 16.253906 -0.140625 13.550781 0.671875 10.125 0.671875 Z M 10.125 0.671875 "/></g></g></g><g fill="#000000" fill-opacity="1"><g transform="translate(451.826244, 360.315323)"><g><path d="M 10.125 0.671875 C 7.6875 0.671875 5.722656 0.382812 4.234375 -0.1875 C 2.742188 -0.769531 2 -1.597656 2 -2.671875 C 2 -3.734375 2.332031 -4.773438 3 -5.796875 C 4.820312 -4.734375 7.019531 -4.203125 9.59375 -4.203125 C 11.332031 -4.203125 12.675781 -4.546875 13.625 -5.234375 C 14.582031 -5.921875 15.0625 -6.929688 15.0625 -8.265625 C 15.0625 -9.242188 14.859375 -10.15625 14.453125 -11 C 14.054688 -11.84375 13.367188 -12.6875 12.390625 -13.53125 L 5.9375 -19.0625 C 3.351562 -21.15625 2.0625 -23.507812 2.0625 -26.125 C 2.0625 -28.570312 2.984375 -30.492188 4.828125 -31.890625 C 6.671875 -33.296875 9.394531 -34 13 -34 C 16.019531 -34 18.160156 -33.597656 19.421875 -32.796875 C 20.691406 -31.992188 21.328125 -31.148438 21.328125 -30.265625 C 21.328125 -29.859375 21.210938 -29.398438 20.984375 -28.890625 C 20.765625 -28.378906 20.503906 -27.925781 20.203125 -27.53125 C 18.242188 -28.726562 16.039062 -29.328125 13.59375 -29.328125 C 12 -29.328125 10.722656 -29.035156 9.765625 -28.453125 C 8.804688 -27.878906 8.328125 -27.082031 8.328125 -26.0625 C 8.328125 -25.394531 8.503906 -24.757812 8.859375 -24.15625 C 9.222656 -23.5625 9.9375 -22.820312 11 -21.9375 L 17.203125 -16.9375 C 18.660156 -15.507812 19.691406 -14.171875 20.296875 -12.921875 C 20.898438 -11.679688 21.203125 -10.238281 21.203125 -8.59375 C 21.203125 -5.664062 20.210938 -3.390625 18.234375 -1.765625 C 16.253906 -0.140625 13.550781 0.671875 10.125 0.671875 Z M 10.125 0.671875 "/></g></g></g><g fill="#000000" fill-opacity="1"><g transform="translate(474.889315, 360.315323)"><g><path d="M 3.140625 -30.859375 C 3.140625 -31.703125 3.28125 -32.289062 3.5625 -32.625 C 3.851562 -32.957031 4.332031 -33.15625 5 -33.21875 C 5.664062 -33.289062 6.84375 -33.328125 8.53125 -33.328125 L 8.53125 -1.0625 C 8.53125 -0.664062 8.453125 -0.398438 8.296875 -0.265625 C 8.140625 -0.128906 7.617188 -0.0507812 6.734375 -0.03125 C 5.847656 -0.0078125 4.648438 0 3.140625 0 Z M 5.59375 -38 C 3.8125 -38 2.921875 -39.285156 2.921875 -41.859375 C 2.921875 -44.703125 3.945312 -46.125 6 -46.125 C 6.976562 -46.125 7.664062 -45.832031 8.0625 -45.25 C 8.457031 -44.675781 8.65625 -43.679688 8.65625 -42.265625 C 8.65625 -40.929688 8.390625 -39.882812 7.859375 -39.125 C 7.328125 -38.375 6.570312 -38 5.59375 -38 Z M 5.59375 -38 "/></g></g></g><g fill="#000000" fill-opacity="1"><g transform="translate(486.554163, 360.315323)"><g><path d="M 10.125 0.671875 C 7.6875 0.671875 5.722656 0.382812 4.234375 -0.1875 C 2.742188 -0.769531 2 -1.597656 2 -2.671875 C 2 -3.734375 2.332031 -4.773438 3 -5.796875 C 4.820312 -4.734375 7.019531 -4.203125 9.59375 -4.203125 C 11.332031 -4.203125 12.675781 -4.546875 13.625 -5.234375 C 14.582031 -5.921875 15.0625 -6.929688 15.0625 -8.265625 C 15.0625 -9.242188 14.859375 -10.15625 14.453125 -11 C 14.054688 -11.84375 13.367188 -12.6875 12.390625 -13.53125 L 5.9375 -19.0625 C 3.351562 -21.15625 2.0625 -23.507812 2.0625 -26.125 C 2.0625 -28.570312 2.984375 -30.492188 4.828125 -31.890625 C 6.671875 -33.296875 9.394531 -34 13 -34 C 16.019531 -34 18.160156 -33.597656 19.421875 -32.796875 C 20.691406 -31.992188 21.328125 -31.148438 21.328125 -30.265625 C 21.328125 -29.859375 21.210938 -29.398438 20.984375 -28.890625 C 20.765625 -28.378906 20.503906 -27.925781 20.203125 -27.53125 C 18.242188 -28.726562 16.039062 -29.328125 13.59375 -29.328125 C 12 -29.328125 10.722656 -29.035156 9.765625 -28.453125 C 8.804688 -27.878906 8.328125 -27.082031 8.328125 -26.0625 C 8.328125 -25.394531 8.503906 -24.757812 8.859375 -24.15625 C 9.222656 -23.5625 9.9375 -22.820312 11 -21.9375 L 17.203125 -16.9375 C 18.660156 -15.507812 19.691406 -14.171875 20.296875 -12.921875 C 20.898438 -11.679688 21.203125 -10.238281 21.203125 -8.59375 C 21.203125 -5.664062 20.210938 -3.390625 18.234375 -1.765625 C 16.253906 -0.140625 13.550781 0.671875 10.125 0.671875 Z M 10.125 0.671875 "/></g></g></g><g fill="#000000" fill-opacity="1"><g transform="translate(509.617234, 360.315323)"><g><path d="M 13.796875 -4.53125 C 16.460938 -4.53125 18.992188 -5.242188 21.390625 -6.671875 C 21.703125 -5.691406 21.859375 -4.46875 21.859375 -3 C 21.859375 -1.976562 20.957031 -1.109375 19.15625 -0.390625 C 17.363281 0.316406 15.203125 0.671875 12.671875 0.671875 C 10.398438 0.671875 8.5 0.25 6.96875 -0.59375 C 5.4375 -1.4375 4.222656 -2.992188 3.328125 -5.265625 C 2.441406 -7.535156 2 -10.757812 2 -14.9375 C 2 -20.132812 2.539062 -24.128906 3.625 -26.921875 C 4.71875 -29.722656 6.109375 -31.601562 7.796875 -32.5625 C 9.484375 -33.519531 11.484375 -34 13.796875 -34 C 19.441406 -34 22.265625 -30.441406 22.265625 -23.328125 C 22.265625 -19.773438 22.019531 -16.890625 21.53125 -14.671875 C 19.570312 -14.265625 17.289062 -13.984375 14.6875 -13.828125 C 12.09375 -13.671875 9.707031 -13.59375 7.53125 -13.59375 C 7.625 -11.195312 7.898438 -9.351562 8.359375 -8.0625 C 8.828125 -6.769531 9.492188 -5.859375 10.359375 -5.328125 C 11.234375 -4.796875 12.378906 -4.53125 13.796875 -4.53125 Z M 13.203125 -29.265625 C 11.597656 -29.265625 10.304688 -28.429688 9.328125 -26.765625 C 8.347656 -25.097656 7.769531 -22.128906 7.59375 -17.859375 C 12 -17.859375 15.046875 -18.125 16.734375 -18.65625 C 16.953125 -19.6875 17.0625 -21.019531 17.0625 -22.65625 C 17.019531 -25.144531 16.726562 -26.867188 16.1875 -27.828125 C 15.65625 -28.785156 14.660156 -29.265625 13.203125 -29.265625 Z M 13.203125 -29.265625 "/></g></g></g><g fill="#000000" fill-opacity="1"><g transform="translate(533.680152, 360.315323)"><g><path d="M 2.265625 0 C 2.222656 -0.0390625 2.132812 -0.160156 2 -0.359375 C 1.863281 -0.566406 1.726562 -0.867188 1.59375 -1.265625 C 1.46875 -1.660156 1.40625 -2.128906 1.40625 -2.671875 C 1.40625 -3.460938 1.554688 -4.128906 1.859375 -4.671875 L 14.859375 -28.796875 L 8 -28.796875 C 5.46875 -28.796875 3.421875 -28.6875 1.859375 -28.46875 C 1.734375 -29.21875 1.671875 -30.0625 1.671875 -31 C 1.671875 -31.789062 1.800781 -32.375 2.0625 -32.75 C 2.332031 -33.132812 2.78125 -33.328125 3.40625 -33.328125 L 20.390625 -33.328125 C 20.441406 -33.285156 20.546875 -33.117188 20.703125 -32.828125 C 20.859375 -32.535156 20.9375 -32.144531 20.9375 -31.65625 C 20.9375 -30.8125 20.734375 -29.945312 20.328125 -29.0625 L 7.671875 -5 L 13.59375 -5 C 16.53125 -5 18.882812 -5.222656 20.65625 -5.671875 C 20.75 -5.304688 20.796875 -4.523438 20.796875 -3.328125 C 20.796875 -2.128906 20.648438 -1.273438 20.359375 -0.765625 C 20.078125 -0.253906 19.507812 0 18.65625 0 Z M 2.265625 0 "/></g></g></g><g fill="#000000" fill-opacity="1"><g transform="translate(392.937308, 453.315318)"><g><path d="M 12.9375 0.46875 C 12.132812 0.46875 11.476562 0.132812 10.96875 -0.53125 C 10.457031 -1.195312 10.046875 -2.15625 9.734375 -3.40625 C 8.660156 -7.9375 7.023438 -15.175781 4.828125 -25.125 C 2.628906 -35.082031 1.175781 -41.726562 0.46875 -45.0625 C 0.375 -45.5 0.328125 -45.785156 0.328125 -45.921875 C 0.328125 -46.191406 0.414062 -46.378906 0.59375 -46.484375 C 0.769531 -46.597656 1.101562 -46.65625 1.59375 -46.65625 L 6 -46.65625 L 11.59375 -20.796875 C 12.175781 -17.859375 12.910156 -13.523438 13.796875 -7.796875 L 14.265625 -4.59375 C 15.066406 -11.082031 15.867188 -16.484375 16.671875 -20.796875 L 21.65625 -45.0625 C 21.789062 -45.632812 21.945312 -46.039062 22.125 -46.28125 C 22.300781 -46.53125 22.613281 -46.65625 23.0625 -46.65625 L 27.734375 -46.65625 L 17.46875 0.203125 C 16.175781 0.378906 14.664062 0.46875 12.9375 0.46875 Z M 12.9375 0.46875 "/></g></g></g><g fill="#000000" fill-opacity="1"><g transform="translate(420.932954, 453.315318)"><g><path d="M 12.265625 0.671875 C 9.773438 0.671875 7.796875 0.25 6.328125 -0.59375 C 4.859375 -1.4375 3.734375 -3.113281 2.953125 -5.625 C 2.179688 -8.144531 1.796875 -11.828125 1.796875 -16.671875 C 1.796875 -28.222656 5.507812 -34 12.9375 -34 C 15.375 -34 17.328125 -33.5 18.796875 -32.5 C 20.265625 -31.5 21.375 -29.742188 22.125 -27.234375 C 22.882812 -24.722656 23.265625 -21.242188 23.265625 -16.796875 C 23.265625 -10.753906 22.34375 -6.332031 20.5 -3.53125 C 18.65625 -0.726562 15.910156 0.671875 12.265625 0.671875 Z M 12.390625 -3.859375 C 13.992188 -3.859375 15.226562 -4.789062 16.09375 -6.65625 C 16.957031 -8.53125 17.390625 -11.910156 17.390625 -16.796875 C 17.390625 -20.265625 17.222656 -22.910156 16.890625 -24.734375 C 16.554688 -26.554688 16.054688 -27.800781 15.390625 -28.46875 C 14.722656 -29.132812 13.835938 -29.46875 12.734375 -29.46875 C 11.085938 -29.46875 9.832031 -28.53125 8.96875 -26.65625 C 8.101562 -24.789062 7.671875 -21.414062 7.671875 -16.53125 C 7.671875 -12.976562 7.847656 -10.289062 8.203125 -8.46875 C 8.554688 -6.644531 9.066406 -5.421875 9.734375 -4.796875 C 10.398438 -4.171875 11.285156 -3.859375 12.390625 -3.859375 Z M 12.390625 -3.859375 "/></g></g></g><g fill="#000000" fill-opacity="1"><g transform="translate(445.99572, 453.315318)"><g><path d="M 12.125 0.671875 C 10.3125 0.671875 8.945312 0.28125 8.03125 -0.5 C 7.125 -1.28125 6.523438 -2.367188 6.234375 -3.765625 C 5.941406 -5.160156 5.796875 -6.992188 5.796875 -9.265625 L 5.796875 -28.734375 L 1.265625 -28.734375 C 1.265625 -29.929688 1.285156 -30.894531 1.328125 -31.625 C 1.378906 -32.363281 1.476562 -32.832031 1.625 -33.03125 C 1.78125 -33.226562 2.039062 -33.328125 2.40625 -33.328125 L 5.796875 -33.328125 L 5.796875 -43.453125 C 5.796875 -44.078125 5.941406 -44.507812 6.234375 -44.75 C 6.523438 -45 6.988281 -45.15625 7.625 -45.21875 C 8.269531 -45.289062 9.4375 -45.328125 11.125 -45.328125 L 11.125 -33.328125 L 18.0625 -33.328125 C 18.0625 -32.128906 18.039062 -31.148438 18 -30.390625 C 17.957031 -29.640625 17.859375 -29.175781 17.703125 -29 C 17.546875 -28.820312 17.289062 -28.734375 16.9375 -28.734375 L 11.125 -28.734375 L 11.125 -9.265625 C 11.125 -7.441406 11.269531 -6.097656 11.5625 -5.234375 C 11.851562 -4.367188 12.53125 -3.9375 13.59375 -3.9375 C 14.3125 -3.9375 14.9375 -4.015625 15.46875 -4.171875 C 16 -4.328125 16.664062 -4.582031 17.46875 -4.9375 C 17.726562 -4.039062 17.859375 -3.148438 17.859375 -2.265625 C 17.859375 -1.203125 17.300781 -0.445312 16.1875 0 C 15.082031 0.445312 13.726562 0.671875 12.125 0.671875 Z M 12.125 0.671875 "/></g></g></g><g fill="#000000" fill-opacity="1"><g transform="translate(465.459361, 453.315318)"><g><path d="M 3 -31 C 5.84375 -33 8.863281 -34 12.0625 -34 C 13.707031 -34 14.894531 -33.765625 15.625 -33.296875 C 16.363281 -32.828125 16.734375 -32.125 16.734375 -31.1875 C 16.734375 -30.082031 16.53125 -29.039062 16.125 -28.0625 C 15.195312 -28.59375 14.132812 -28.859375 12.9375 -28.859375 C 11.195312 -28.859375 9.726562 -28.347656 8.53125 -27.328125 L 8.46875 -1.0625 C 8.46875 -0.664062 8.378906 -0.398438 8.203125 -0.265625 C 8.023438 -0.128906 7.488281 -0.0507812 6.59375 -0.03125 C 5.707031 -0.0078125 4.507812 0 3 0 Z M 3 -31 "/></g></g></g><g fill="#000000" fill-opacity="1"><g transform="translate(482.98997, 453.315318)"><g><path d="M 13.796875 -4.53125 C 16.460938 -4.53125 18.992188 -5.242188 21.390625 -6.671875 C 21.703125 -5.691406 21.859375 -4.46875 21.859375 -3 C 21.859375 -1.976562 20.957031 -1.109375 19.15625 -0.390625 C 17.363281 0.316406 15.203125 0.671875 12.671875 0.671875 C 10.398438 0.671875 8.5 0.25 6.96875 -0.59375 C 5.4375 -1.4375 4.222656 -2.992188 3.328125 -5.265625 C 2.441406 -7.535156 2 -10.757812 2 -14.9375 C 2 -20.132812 2.539062 -24.128906 3.625 -26.921875 C 4.71875 -29.722656 6.109375 -31.601562 7.796875 -32.5625 C 9.484375 -33.519531 11.484375 -34 13.796875 -34 C 19.441406 -34 22.265625 -30.441406 22.265625 -23.328125 C 22.265625 -19.773438 22.019531 -16.890625 21.53125 -14.671875 C 19.570312 -14.265625 17.289062 -13.984375 14.6875 -13.828125 C 12.09375 -13.671875 9.707031 -13.59375 7.53125 -13.59375 C 7.625 -11.195312 7.898438 -9.351562 8.359375 -8.0625 C 8.828125 -6.769531 9.492188 -5.859375 10.359375 -5.328125 C 11.234375 -4.796875 12.378906 -4.53125 13.796875 -4.53125 Z M 13.203125 -29.265625 C 11.597656 -29.265625 10.304688 -28.429688 9.328125 -26.765625 C 8.347656 -25.097656 7.769531 -22.128906 7.59375 -17.859375 C 12 -17.859375 15.046875 -18.125 16.734375 -18.65625 C 16.953125 -19.6875 17.0625 -21.019531 17.0625 -22.65625 C 17.019531 -25.144531 16.726562 -26.867188 16.1875 -27.828125 C 15.65625 -28.785156 14.660156 -29.265625 13.203125 -29.265625 Z M 13.203125 -29.265625 "/></g></g></g><g fill="#000000" fill-opacity="1"><g transform="translate(507.05449, 453.315318)"><g/></g></g><g fill="#000000" fill-opacity="1"><g transform="translate(301.847466, 546.315313)"><g><path d="M 10.59375 -46.65625 C 14.820312 -46.65625 17.921875 -45.609375 19.890625 -43.515625 C 21.867188 -41.429688 22.859375 -38.101562 22.859375 -33.53125 C 22.859375 -28.375 21.734375 -24.648438 19.484375 -22.359375 C 17.242188 -20.078125 14.304688 -18.9375 10.671875 -18.9375 L 8.265625 -18.9375 L 8.265625 -1.0625 C 8.265625 -0.664062 8.1875 -0.398438 8.03125 -0.265625 C 7.875 -0.128906 7.347656 -0.0507812 6.453125 -0.03125 C 5.566406 -0.0078125 4.394531 0 2.9375 0 L 2.9375 -45.59375 C 2.9375 -45.988281 3.015625 -46.265625 3.171875 -46.421875 C 3.328125 -46.578125 3.601562 -46.65625 4 -46.65625 Z M 11.203125 -23.921875 C 13.148438 -23.921875 14.59375 -24.707031 15.53125 -26.28125 C 16.46875 -27.863281 16.9375 -30.476562 16.9375 -34.125 C 16.9375 -36.65625 16.523438 -38.585938 15.703125 -39.921875 C 14.878906 -41.253906 13.507812 -41.921875 11.59375 -41.921875 L 8.265625 -41.921875 L 8.265625 -23.921875 Z M 11.203125 -23.921875 "/></g></g></g><g fill="#000000" fill-opacity="1"><g transform="translate(325.910384, 546.315313)"><g><path d="M 3 -46.53125 C 3 -47.375 3.128906 -47.960938 3.390625 -48.296875 C 3.660156 -48.628906 4.128906 -48.828125 4.796875 -48.890625 C 5.460938 -48.960938 6.640625 -49 8.328125 -49 L 8.328125 -31.390625 C 9.304688 -32.234375 10.472656 -32.878906 11.828125 -33.328125 C 13.179688 -33.773438 14.523438 -34 15.859375 -34 C 18.578125 -34 20.410156 -33.296875 21.359375 -31.890625 C 22.316406 -30.492188 22.796875 -28.265625 22.796875 -25.203125 L 22.796875 -1.0625 C 22.796875 -0.664062 22.695312 -0.398438 22.5 -0.265625 C 22.300781 -0.128906 21.753906 -0.0507812 20.859375 -0.03125 C 19.972656 -0.0078125 18.796875 0 17.328125 0 L 17.328125 -23.734375 C 17.328125 -25.421875 17.0625 -26.71875 16.53125 -27.625 C 16 -28.539062 14.953125 -29 13.390625 -29 C 12.546875 -29 11.679688 -28.851562 10.796875 -28.5625 C 9.910156 -28.269531 9.085938 -27.816406 8.328125 -27.203125 L 8.328125 -1.0625 C 8.328125 -0.664062 8.25 -0.398438 8.09375 -0.265625 C 7.9375 -0.128906 7.425781 -0.0507812 6.5625 -0.03125 C 5.695312 -0.0078125 4.507812 0 3 0 Z M 3 -46.53125 "/></g></g></g><g fill="#000000" fill-opacity="1"><g transform="translate(351.239774, 546.315313)"><g><path d="M 12.265625 0.671875 C 9.773438 0.671875 7.796875 0.25 6.328125 -0.59375 C 4.859375 -1.4375 3.734375 -3.113281 2.953125 -5.625 C 2.179688 -8.144531 1.796875 -11.828125 1.796875 -16.671875 C 1.796875 -28.222656 5.507812 -34 12.9375 -34 C 15.375 -34 17.328125 -33.5 18.796875 -32.5 C 20.265625 -31.5 21.375 -29.742188 22.125 -27.234375 C 22.882812 -24.722656 23.265625 -21.242188 23.265625 -16.796875 C 23.265625 -10.753906 22.34375 -6.332031 20.5 -3.53125 C 18.65625 -0.726562 15.910156 0.671875 12.265625 0.671875 Z M 12.390625 -3.859375 C 13.992188 -3.859375 15.226562 -4.789062 16.09375 -6.65625 C 16.957031 -8.53125 17.390625 -11.910156 17.390625 -16.796875 C 17.390625 -20.265625 17.222656 -22.910156 16.890625 -24.734375 C 16.554688 -26.554688 16.054688 -27.800781 15.390625 -28.46875 C 14.722656 -29.132812 13.835938 -29.46875 12.734375 -29.46875 C 11.085938 -29.46875 9.832031 -28.53125 8.96875 -26.65625 C 8.101562 -24.789062 7.671875 -21.414062 7.671875 -16.53125 C 7.671875 -12.976562 7.847656 -10.289062 8.203125 -8.46875 C 8.554688 -6.644531 9.066406 -5.421875 9.734375 -4.796875 C 10.398438 -4.171875 11.285156 -3.859375 12.390625 -3.859375 Z M 12.390625 -3.859375 "/></g></g></g><g fill="#000000" fill-opacity="1"><g transform="translate(376.30254, 546.315313)"><g><path d="M 12.125 0.671875 C 10.3125 0.671875 8.945312 0.28125 8.03125 -0.5 C 7.125 -1.28125 6.523438 -2.367188 6.234375 -3.765625 C 5.941406 -5.160156 5.796875 -6.992188 5.796875 -9.265625 L 5.796875 -28.734375 L 1.265625 -28.734375 C 1.265625 -29.929688 1.285156 -30.894531 1.328125 -31.625 C 1.378906 -32.363281 1.476562 -32.832031 1.625 -33.03125 C 1.78125 -33.226562 2.039062 -33.328125 2.40625 -33.328125 L 5.796875 -33.328125 L 5.796875 -43.453125 C 5.796875 -44.078125 5.941406 -44.507812 6.234375 -44.75 C 6.523438 -45 6.988281 -45.15625 7.625 -45.21875 C 8.269531 -45.289062 9.4375 -45.328125 11.125 -45.328125 L 11.125 -33.328125 L 18.0625 -33.328125 C 18.0625 -32.128906 18.039062 -31.148438 18 -30.390625 C 17.957031 -29.640625 17.859375 -29.175781 17.703125 -29 C 17.546875 -28.820312 17.289062 -28.734375 16.9375 -28.734375 L 11.125 -28.734375 L 11.125 -9.265625 C 11.125 -7.441406 11.269531 -6.097656 11.5625 -5.234375 C 11.851562 -4.367188 12.53125 -3.9375 13.59375 -3.9375 C 14.3125 -3.9375 14.9375 -4.015625 15.46875 -4.171875 C 16 -4.328125 16.664062 -4.582031 17.46875 -4.9375 C 17.726562 -4.039062 17.859375 -3.148438 17.859375 -2.265625 C 17.859375 -1.203125 17.300781 -0.445312 16.1875 0 C 15.082031 0.445312 13.726562 0.671875 12.125 0.671875 Z M 12.125 0.671875 "/></g></g></g><g fill="#000000" fill-opacity="1"><g transform="translate(395.766181, 546.315313)"><g><path d="M 12.265625 0.671875 C 9.773438 0.671875 7.796875 0.25 6.328125 -0.59375 C 4.859375 -1.4375 3.734375 -3.113281 2.953125 -5.625 C 2.179688 -8.144531 1.796875 -11.828125 1.796875 -16.671875 C 1.796875 -28.222656 5.507812 -34 12.9375 -34 C 15.375 -34 17.328125 -33.5 18.796875 -32.5 C 20.265625 -31.5 21.375 -29.742188 22.125 -27.234375 C 22.882812 -24.722656 23.265625 -21.242188 23.265625 -16.796875 C 23.265625 -10.753906 22.34375 -6.332031 20.5 -3.53125 C 18.65625 -0.726562 15.910156 0.671875 12.265625 0.671875 Z M 12.390625 -3.859375 C 13.992188 -3.859375 15.226562 -4.789062 16.09375 -6.65625 C 16.957031 -8.53125 17.390625 -11.910156 17.390625 -16.796875 C 17.390625 -20.265625 17.222656 -22.910156 16.890625 -24.734375 C 16.554688 -26.554688 16.054688 -27.800781 15.390625 -28.46875 C 14.722656 -29.132812 13.835938 -29.46875 12.734375 -29.46875 C 11.085938 -29.46875 9.832031 -28.53125 8.96875 -26.65625 C 8.101562 -24.789062 7.671875 -21.414062 7.671875 -16.53125 C 7.671875 -12.976562 7.847656 -10.289062 8.203125 -8.46875 C 8.554688 -6.644531 9.066406 -5.421875 9.734375 -4.796875 C 10.398438 -4.171875 11.285156 -3.859375 12.390625 -3.859375 Z M 12.390625 -3.859375 "/></g></g></g><g fill="#000000" fill-opacity="1"><g transform="translate(420.828947, 546.315313)"><g/></g></g><g fill="#000000" fill-opacity="1"><g transform="translate(431.360635, 546.315313)"><g><path d="M 12.859375 0.671875 C 10.597656 0.671875 8.695312 0.296875 7.15625 -0.453125 C 5.625 -1.210938 4.390625 -2.769531 3.453125 -5.125 C 2.523438 -7.488281 2.0625 -10.9375 2.0625 -15.46875 C 2.0625 -21.726562 3.003906 -26.378906 4.890625 -29.421875 C 6.785156 -32.472656 9.242188 -34 12.265625 -34 C 14.304688 -34 15.90625 -33.550781 17.0625 -32.65625 L 17.0625 -46.53125 C 17.0625 -47.375 17.207031 -47.960938 17.5 -48.296875 C 17.789062 -48.628906 18.269531 -48.828125 18.9375 -48.890625 C 19.601562 -48.960938 20.78125 -49 22.46875 -49 L 22.46875 -1.328125 C 19.625 0.00390625 16.421875 0.671875 12.859375 0.671875 Z M 13.0625 -4.125 C 14.75 -4.125 16.082031 -4.457031 17.0625 -5.125 L 17.0625 -28.46875 C 16.3125 -29.039062 15.289062 -29.328125 14 -29.328125 C 10 -29.328125 8 -24.90625 8 -16.0625 C 8 -12.820312 8.195312 -10.332031 8.59375 -8.59375 C 9 -6.863281 9.554688 -5.6875 10.265625 -5.0625 C 10.972656 -4.4375 11.90625 -4.125 13.0625 -4.125 Z M 13.0625 -4.125 "/></g></g></g><g fill="#000000" fill-opacity="1"><g transform="translate(456.756676, 546.315313)"><g><path d="M 13.796875 -4.53125 C 16.460938 -4.53125 18.992188 -5.242188 21.390625 -6.671875 C 21.703125 -5.691406 21.859375 -4.46875 21.859375 -3 C 21.859375 -1.976562 20.957031 -1.109375 19.15625 -0.390625 C 17.363281 0.316406 15.203125 0.671875 12.671875 0.671875 C 10.398438 0.671875 8.5 0.25 6.96875 -0.59375 C 5.4375 -1.4375 4.222656 -2.992188 3.328125 -5.265625 C 2.441406 -7.535156 2 -10.757812 2 -14.9375 C 2 -20.132812 2.539062 -24.128906 3.625 -26.921875 C 4.71875 -29.722656 6.109375 -31.601562 7.796875 -32.5625 C 9.484375 -33.519531 11.484375 -34 13.796875 -34 C 19.441406 -34 22.265625 -30.441406 22.265625 -23.328125 C 22.265625 -19.773438 22.019531 -16.890625 21.53125 -14.671875 C 19.570312 -14.265625 17.289062 -13.984375 14.6875 -13.828125 C 12.09375 -13.671875 9.707031 -13.59375 7.53125 -13.59375 C 7.625 -11.195312 7.898438 -9.351562 8.359375 -8.0625 C 8.828125 -6.769531 9.492188 -5.859375 10.359375 -5.328125 C 11.234375 -4.796875 12.378906 -4.53125 13.796875 -4.53125 Z M 13.203125 -29.265625 C 11.597656 -29.265625 10.304688 -28.429688 9.328125 -26.765625 C 8.347656 -25.097656 7.769531 -22.128906 7.59375 -17.859375 C 12 -17.859375 15.046875 -18.125 16.734375 -18.65625 C 16.953125 -19.6875 17.0625 -21.019531 17.0625 -22.65625 C 17.019531 -25.144531 16.726562 -26.867188 16.1875 -27.828125 C 15.65625 -28.785156 14.660156 -29.265625 13.203125 -29.265625 Z M 13.203125 -29.265625 "/></g></g></g><g fill="#000000" fill-opacity="1"><g transform="translate(480.819594, 546.315313)"><g/></g></g><g fill="#000000" fill-opacity="1"><g transform="translate(491.351282, 546.315313)"><g><path d="M 10.59375 -46.65625 C 14.820312 -46.65625 17.921875 -45.609375 19.890625 -43.515625 C 21.867188 -41.429688 22.859375 -38.101562 22.859375 -33.53125 C 22.859375 -28.375 21.734375 -24.648438 19.484375 -22.359375 C 17.242188 -20.078125 14.304688 -18.9375 10.671875 -18.9375 L 8.265625 -18.9375 L 8.265625 -1.0625 C 8.265625 -0.664062 8.1875 -0.398438 8.03125 -0.265625 C 7.875 -0.128906 7.347656 -0.0507812 6.453125 -0.03125 C 5.566406 -0.0078125 4.394531 0 2.9375 0 L 2.9375 -45.59375 C 2.9375 -45.988281 3.015625 -46.265625 3.171875 -46.421875 C 3.328125 -46.578125 3.601562 -46.65625 4 -46.65625 Z M 11.203125 -23.921875 C 13.148438 -23.921875 14.59375 -24.707031 15.53125 -26.28125 C 16.46875 -27.863281 16.9375 -30.476562 16.9375 -34.125 C 16.9375 -36.65625 16.523438 -38.585938 15.703125 -39.921875 C 14.878906 -41.253906 13.507812 -41.921875 11.59375 -41.921875 L 8.265625 -41.921875 L 8.265625 -23.921875 Z M 11.203125 -23.921875 "/></g></g></g><g fill="#000000" fill-opacity="1"><g transform="translate(515.414212, 546.315313)"><g><path d="M 3 -31 C 5.84375 -33 8.863281 -34 12.0625 -34 C 13.707031 -34 14.894531 -33.765625 15.625 -33.296875 C 16.363281 -32.828125 16.734375 -32.125 16.734375 -31.1875 C 16.734375 -30.082031 16.53125 -29.039062 16.125 -28.0625 C 15.195312 -28.59375 14.132812 -28.859375 12.9375 -28.859375 C 11.195312 -28.859375 9.726562 -28.347656 8.53125 -27.328125 L 8.46875 -1.0625 C 8.46875 -0.664062 8.378906 -0.398438 8.203125 -0.265625 C 8.023438 -0.128906 7.488281 -0.0507812 6.59375 -0.03125 C 5.707031 -0.0078125 4.507812 0 3 0 Z M 3 -31 "/></g></g></g><g fill="#000000" fill-opacity="1"><g transform="translate(532.944821, 546.315313)"><g><path d="M 12.265625 0.671875 C 9.773438 0.671875 7.796875 0.25 6.328125 -0.59375 C 4.859375 -1.4375 3.734375 -3.113281 2.953125 -5.625 C 2.179688 -8.144531 1.796875 -11.828125 1.796875 -16.671875 C 1.796875 -28.222656 5.507812 -34 12.9375 -34 C 15.375 -34 17.328125 -33.5 18.796875 -32.5 C 20.265625 -31.5 21.375 -29.742188 22.125 -27.234375 C 22.882812 -24.722656 23.265625 -21.242188 23.265625 -16.796875 C 23.265625 -10.753906 22.34375 -6.332031 20.5 -3.53125 C 18.65625 -0.726562 15.910156 0.671875 12.265625 0.671875 Z M 12.390625 -3.859375 C 13.992188 -3.859375 15.226562 -4.789062 16.09375 -6.65625 C 16.957031 -8.53125 17.390625 -11.910156 17.390625 -16.796875 C 17.390625 -20.265625 17.222656 -22.910156 16.890625 -24.734375 C 16.554688 -26.554688 16.054688 -27.800781 15.390625 -28.46875 C 14.722656 -29.132812 13.835938 -29.46875 12.734375 -29.46875 C 11.085938 -29.46875 9.832031 -28.53125 8.96875 -26.65625 C 8.101562 -24.789062 7.671875 -21.414062 7.671875 -16.53125 C 7.671875 -12.976562 7.847656 -10.289062 8.203125 -8.46875 C 8.554688 -6.644531 9.066406 -5.421875 9.734375 -4.796875 C 10.398438 -4.171875 11.285156 -3.859375 12.390625 -3.859375 Z M 12.390625 -3.859375 "/></g></g></g><g fill="#000000" fill-opacity="1"><g transform="translate(558.007587, 546.315313)"><g><path d="M 5.46875 -28.796875 L 0.859375 -28.796875 C 0.859375 -29.992188 0.878906 -30.957031 0.921875 -31.6875 C 0.972656 -32.425781 1.078125 -32.882812 1.234375 -33.0625 C 1.390625 -33.238281 1.710938 -33.328125 2.203125 -33.328125 L 5.46875 -33.328125 L 5.46875 -37.390625 C 5.46875 -42.015625 6.519531 -45.148438 8.625 -46.796875 C 10.738281 -48.441406 13.394531 -49.265625 16.59375 -49.265625 C 18.59375 -49.265625 20.125 -49.019531 21.1875 -48.53125 C 22.257812 -48.039062 22.796875 -47.375 22.796875 -46.53125 C 22.796875 -45.507812 22.597656 -44.53125 22.203125 -43.59375 C 20.910156 -44.125 19.332031 -44.390625 17.46875 -44.390625 C 15.375 -44.390625 13.738281 -43.945312 12.5625 -43.0625 C 11.382812 -42.175781 10.796875 -40.421875 10.796875 -37.796875 L 10.796875 -33.328125 L 16.796875 -33.328125 C 16.796875 -32.128906 16.773438 -31.160156 16.734375 -30.421875 C 16.691406 -29.691406 16.601562 -29.238281 16.46875 -29.0625 C 16.332031 -28.882812 16.066406 -28.796875 15.671875 -28.796875 L 10.796875 -28.796875 L 10.796875 -1.0625 C 10.796875 -0.84375 10.71875 -0.609375 10.5625 -0.359375 C 10.40625 -0.117188 10.109375 0 9.671875 0 L 5.46875 0 Z M 5.46875 -28.796875 "/></g></g></g><g fill="#000000" fill-opacity="1"><g transform="translate(574.938273, 546.315313)"><g><path d="M 3.140625 -30.859375 C 3.140625 -31.703125 3.28125 -32.289062 3.5625 -32.625 C 3.851562 -32.957031 4.332031 -33.15625 5 -33.21875 C 5.664062 -33.289062 6.84375 -33.328125 8.53125 -33.328125 L 8.53125 -1.0625 C 8.53125 -0.664062 8.453125 -0.398438 8.296875 -0.265625 C 8.140625 -0.128906 7.617188 -0.0507812 6.734375 -0.03125 C 5.847656 -0.0078125 4.648438 0 3.140625 0 Z M 5.59375 -38 C 3.8125 -38 2.921875 -39.285156 2.921875 -41.859375 C 2.921875 -44.703125 3.945312 -46.125 6 -46.125 C 6.976562 -46.125 7.664062 -45.832031 8.0625 -45.25 C 8.457031 -44.675781 8.65625 -43.679688 8.65625 -42.265625 C 8.65625 -40.929688 8.390625 -39.882812 7.859375 -39.125 C 7.328125 -38.375 6.570312 -38 5.59375 -38 Z M 5.59375 -38 "/></g></g></g><g fill="#000000" fill-opacity="1"><g transform="translate(586.60312, 546.315313)"><g><path d="M 3.0625 -46.53125 C 3.0625 -47.375 3.207031 -47.960938 3.5 -48.296875 C 3.789062 -48.628906 4.269531 -48.828125 4.9375 -48.890625 C 5.601562 -48.960938 6.78125 -49 8.46875 -49 L 8.46875 -1.0625 C 8.46875 -0.664062 8.378906 -0.398438 8.203125 -0.265625 C 8.023438 -0.128906 7.5 -0.0507812 6.625 -0.03125 C 5.757812 -0.0078125 4.570312 0 3.0625 0 Z M 3.0625 -46.53125 "/></g></g></g></svg>